<?xml version="1.0" encoding="UTF-8"?>
<svg xmlns="http://www.w3.org/2000/svg" xmlns:xlink="http://www.w3.org/1999/xlink" width="26pt" height="21pt" viewBox="0 0 26 21" version="1.1">
<g id="surface1">
<path style=" stroke:none;fill-rule:nonzero;fill:rgb(67.45098%,67.45098%,67.45098%);fill-opacity:1;" d="M 23.929688 2.476562 L 26 0.453125 L 26 0.0117188 L 18.8125 0.0117188 L 13.691406 13.003906 L 7.863281 0.0117188 L 0.316406 0.0117188 L 0.316406 0.453125 L 2.75 3.429688 C 2.984375 3.652344 3.101562 3.96875 3.066406 4.292969 L 3.066406 15.976562 C 3.140625 16.398438 3.011719 16.828125 2.71875 17.136719 L 0 20.507812 L 0 20.945312 L 7.738281 20.945312 L 7.738281 20.5 L 5.011719 17.132812 C 4.714844 16.828125 4.574219 16.398438 4.632812 15.972656 L 4.632812 5.867188 L 11.429688 20.960938 L 12.222656 20.960938 L 18.0625 5.867188 L 18.0625 17.878906 C 18.0625 18.203125 18.0625 18.265625 17.859375 18.46875 L 15.757812 20.542969 L 15.757812 20.988281 L 25.953125 20.988281 L 25.953125 20.546875 L 23.925781 18.523438 C 23.746094 18.386719 23.65625 18.160156 23.695312 17.933594 L 23.695312 3.066406 C 23.65625 2.84375 23.746094 2.617188 23.925781 2.476562 Z M 23.929688 2.476562 "/>
</g>
</svg>
