<?xml version="1.0" encoding="UTF-8"?>
<svg xmlns="http://www.w3.org/2000/svg" xmlns:xlink="http://www.w3.org/1999/xlink" width="25pt" height="25pt" viewBox="0 0 25 25" version="1.1">
<g id="surface1">
<path style=" stroke:none;fill-rule:nonzero;fill:rgb(0%,63.529412%,37.254902%);fill-opacity:1;" d="M 23.199219 0 L 1.804688 0 C 0.808594 0 0 0.808594 0 1.804688 L 0 23.199219 C 0 24.195312 0.808594 25 1.804688 25 L 13.355469 25 L 13.355469 15.332031 L 10.109375 15.332031 L 10.109375 11.535156 L 13.355469 11.535156 L 13.355469 8.761719 C 13.355469 5.53125 15.324219 3.777344 18.207031 3.777344 C 19.179688 3.773438 20.152344 3.820312 21.121094 3.925781 L 21.121094 7.316406 L 19.132812 7.316406 C 17.5625 7.316406 17.257812 8.0625 17.257812 9.15625 L 17.257812 11.535156 L 20.992188 11.535156 L 20.519531 15.332031 L 17.261719 15.332031 L 17.261719 25 L 23.199219 25 C 24.195312 25 25.003906 24.191406 25.003906 23.195312 L 25.003906 1.804688 C 25.003906 0.808594 24.195312 0 23.199219 0 Z M 23.199219 0 "/>
</g>
</svg>
