<?xml version="1.0" encoding="UTF-8"?>
<svg xmlns="http://www.w3.org/2000/svg" xmlns:xlink="http://www.w3.org/1999/xlink" width="25pt" height="25pt" viewBox="0 0 25 25" version="1.1">
<g id="surface1">
<path style=" stroke:none;fill-rule:nonzero;fill:rgb(0%,63.529412%,37.254902%);fill-opacity:1;" d="M 18.097656 0 L 6.898438 0 C 3.089844 0.00390625 0.00390625 3.089844 0 6.898438 L 0 18.097656 C 0 21.90625 3.089844 24.996094 6.898438 25 L 18.097656 25 C 21.910156 24.996094 24.996094 21.910156 25 18.097656 L 25 6.898438 C 24.996094 3.089844 21.90625 0 18.097656 0 Z M 22.78125 18.097656 C 22.777344 20.683594 20.683594 22.777344 18.097656 22.777344 L 6.898438 22.777344 C 4.316406 22.773438 2.222656 20.683594 2.21875 18.097656 L 2.21875 6.898438 C 2.222656 4.316406 4.316406 2.222656 6.898438 2.21875 L 18.097656 2.21875 C 20.683594 2.222656 22.773438 4.316406 22.777344 6.898438 L 22.777344 18.097656 Z M 22.78125 18.097656 "/>
<path style=" stroke:none;fill-rule:nonzero;fill:rgb(0%,63.529412%,37.254902%);fill-opacity:1;" d="M 12.5 6.058594 C 8.941406 6.0625 6.0625 8.945312 6.0625 12.503906 C 6.0625 16.058594 8.949219 18.941406 12.503906 18.941406 C 16.0625 18.941406 18.945312 16.058594 18.945312 12.5 C 18.941406 8.941406 16.058594 6.0625 12.5 6.058594 Z M 12.5 16.722656 C 10.167969 16.722656 8.277344 14.832031 8.277344 12.5 C 8.277344 10.167969 10.167969 8.277344 12.5 8.277344 C 14.832031 8.277344 16.722656 10.167969 16.722656 12.5 C 16.722656 14.832031 14.832031 16.722656 12.5 16.722656 Z M 12.5 16.722656 "/>
<path style=" stroke:none;fill-rule:nonzero;fill:rgb(0%,63.529412%,37.254902%);fill-opacity:1;" d="M 19.210938 4.175781 C 18.433594 4.175781 17.761719 4.726562 17.605469 5.488281 C 17.453125 6.253906 17.863281 7.019531 18.582031 7.320312 C 19.304688 7.617188 20.132812 7.367188 20.566406 6.71875 C 21 6.070312 20.914062 5.203125 20.363281 4.65625 C 20.054688 4.351562 19.644531 4.179688 19.210938 4.175781 Z M 19.210938 4.175781 "/>
</g>
</svg>
