<?xml version="1.0" encoding="UTF-8"?>
<svg xmlns="http://www.w3.org/2000/svg" xmlns:xlink="http://www.w3.org/1999/xlink" width="90pt" height="90pt" viewBox="0 0 90 90" version="1.1">
<g id="surface1">
<path style=" stroke:none;fill-rule:nonzero;fill:rgb(64.705882%,64.313725%,57.647059%);fill-opacity:1;" d="M 89.523438 17.59375 C 89.613281 9.449219 83.960938 2.335938 75.933594 0.496094 C 75.199219 0.304688 74.460938 0.167969 73.730469 0 C 54.527344 0 15.597656 0.140625 15.3125 0.175781 C 12.445312 0.597656 9.664062 1.453125 7.511719 3.3125 C 5.898438 4.789062 4.394531 6.363281 3.003906 8.042969 C 0.746094 10.847656 0.15625 14.332031 0.15625 17.882812 C 0.15625 29.121094 0.15625 40.371094 0.15625 51.628906 C 0.15625 52.59375 0.210938 53.5625 0.304688 54.535156 C 1.09375 62.195312 7.511719 68.835938 15.292969 69.703125 C 18.105469 70.015625 20.972656 69.871094 23.820312 69.9375 L 24.902344 69.9375 L 24.902344 71.027344 C 24.902344 76.070312 24.902344 81.121094 24.902344 86.175781 C 24.796875 87.488281 25.402344 88.761719 26.503906 89.507812 C 28.175781 90.609375 29.898438 90.347656 31.4375 88.742188 C 37.179688 82.71875 42.910156 76.6875 48.640625 70.648438 C 49.050781 70.164062 49.671875 69.890625 50.3125 69.921875 C 57.292969 69.921875 64.285156 69.921875 71.242188 69.921875 C 72.042969 69.941406 72.847656 69.914062 73.648438 69.839844 C 82.886719 68.742188 89.46875 61.558594 89.527344 52.390625 C 89.589844 40.785156 89.585938 29.183594 89.523438 17.59375 Z M 86.839844 52.140625 C 86.84375 53.402344 86.703125 54.660156 86.410156 55.886719 C 84.851562 62.644531 78.714844 67.398438 71.703125 67.28125 C 64.40625 67.308594 57.105469 67.308594 49.796875 67.28125 C 48.726562 67.246094 47.691406 67.691406 46.992188 68.496094 C 41.207031 74.625 35.398438 80.738281 29.570312 86.828125 C 29.226562 87.191406 28.742188 87.390625 28.242188 87.390625 C 27.546875 87.296875 27.59375 86.605469 27.59375 86.042969 C 27.59375 80.640625 27.59375 75.242188 27.59375 69.839844 C 27.59375 68.015625 26.859375 67.296875 24.988281 67.289062 C 22.378906 67.289062 19.769531 67.289062 17.152344 67.289062 C 15.246094 67.265625 13.371094 66.816406 11.65625 65.988281 C 5.84375 63.128906 2.894531 58.460938 2.859375 52.097656 C 2.796875 40.800781 2.859375 29.5 2.859375 18.199219 C 2.859375 15.121094 3.253906 12.03125 5.1875 9.574219 C 6.433594 8.0625 7.789062 6.644531 9.246094 5.328125 C 11.730469 3.210938 14.9375 2.648438 18.203125 2.648438 C 35.953125 2.648438 53.703125 2.648438 71.449219 2.648438 C 72.515625 2.644531 73.578125 2.730469 74.632812 2.914062 C 81.835938 4.242188 86.84375 10.316406 86.859375 17.789062 C 86.875 29.246094 86.867188 40.691406 86.839844 52.140625 Z M 86.839844 52.140625 "/>
<path style=" stroke:none;fill-rule:nonzero;fill:rgb(64.705882%,64.313725%,57.647059%);fill-opacity:1;" d="M 59.882812 18.640625 C 55.109375 16.941406 50.835938 17.917969 47.160156 21.382812 C 46.371094 22.113281 45.6875 22.933594 44.738281 23.886719 C 43.695312 22.757812 42.867188 21.703125 41.871094 20.832031 C 37.738281 17.25 31.65625 16.9375 27.164062 20.066406 C 21.011719 24.484375 20.394531 32.816406 25.863281 38.246094 C 31.335938 43.675781 36.925781 49.265625 42.519531 54.761719 C 44.101562 56.324219 45.5625 56.316406 47.15625 54.761719 C 50.046875 51.902344 63.167969 38.980469 64.535156 37.515625 C 67.164062 34.625 68.1875 30.640625 67.253906 26.863281 C 66.320312 23.085938 63.5625 20.007812 59.882812 18.640625 Z M 62.5625 35.699219 C 61.234375 37.15625 47.894531 50.246094 44.832031 53.289062 L 38.394531 46.945312 C 34.816406 43.390625 31.230469 39.84375 27.636719 36.300781 C 25.332031 34.164062 24.324219 30.992188 24.980469 27.9375 C 25.476562 24.773438 27.726562 22.152344 30.808594 21.160156 C 34.085938 19.871094 37.820312 20.59375 40.367188 23.015625 C 41.210938 23.742188 41.96875 24.585938 42.777344 25.355469 C 43.300781 25.953125 44.066406 26.296875 44.867188 26.296875 C 45.667969 26.296875 46.425781 25.953125 46.953125 25.355469 C 47.804688 24.539062 48.613281 23.675781 49.5 22.890625 C 53.144531 19.777344 58.601562 19.960938 62.027344 23.320312 C 65.449219 26.675781 65.683594 32.070312 62.5625 35.699219 Z M 62.5625 35.699219 "/>
</g>
</svg>
