<?xml version="1.0" encoding="UTF-8"?>
<svg xmlns="http://www.w3.org/2000/svg" xmlns:xlink="http://www.w3.org/1999/xlink" width="99pt" height="83pt" viewBox="0 0 99 83" version="1.1">
<g id="surface1">
<path style=" stroke:none;fill-rule:nonzero;fill:rgb(64.705882%,64.313725%,57.647059%);fill-opacity:1;" d="M 0 11.222656 C 0.421875 10.402344 1.308594 9.925781 2.226562 10.035156 C 4.191406 10.089844 6.148438 10.035156 8.257812 10.035156 C 8.257812 9.308594 8.257812 8.644531 8.257812 7.976562 C 8.257812 6.070312 8.257812 4.167969 8.257812 2.261719 C 8.257812 0.613281 8.84375 0.0507812 10.507812 0.160156 C 22.011719 0.765625 33.328125 3.292969 44.003906 7.628906 C 45.542969 8.28125 47.136719 8.976562 48.742188 9.5625 C 49.242188 9.730469 49.78125 9.730469 50.28125 9.5625 C 55.128906 7.800781 59.921875 5.816406 64.84375 4.222656 C 71.746094 2.097656 78.875 0.800781 86.078125 0.359375 C 86.941406 0.296875 87.835938 0.195312 88.675781 0.152344 C 90.078125 0.0820312 90.71875 0.667969 90.726562 2.074219 C 90.726562 4.5 90.726562 6.917969 90.726562 9.347656 C 90.726562 9.53125 90.726562 9.726562 90.777344 10.050781 L 95.792969 10.050781 C 98.800781 10.050781 98.984375 10.234375 98.984375 13.210938 C 98.984375 35.574219 98.984375 57.9375 98.984375 80.300781 C 98.984375 82.410156 98.554688 82.835938 96.433594 82.835938 C 65.101562 82.835938 33.769531 82.835938 2.433594 82.835938 C 1.371094 82.835938 0.429688 82.726562 -0.046875 81.605469 Z M 11.640625 3.542969 L 11.640625 69.789062 C 24.15625 70.53125 36.429688 73.5625 47.855469 78.738281 L 47.855469 77.8125 C 47.855469 56.421875 47.855469 35.042969 47.855469 13.671875 C 47.914062 13.125 47.566406 12.617188 47.039062 12.46875 C 38.109375 8.429688 28.652344 5.6875 18.953125 4.324219 C 16.542969 4.015625 14.117188 3.804688 11.640625 3.542969 Z M 87.375 69.773438 L 87.375 3.660156 C 87.039062 3.636719 86.707031 3.636719 86.371094 3.660156 C 82.257812 4.207031 78.121094 4.617188 74.042969 5.34375 C 66.4375 6.703125 59.210938 9.324219 52.125 12.359375 C 51.472656 12.539062 51.050781 13.171875 51.136719 13.84375 C 51.136719 35.066406 51.136719 56.292969 51.136719 77.515625 L 51.136719 78.738281 C 62.574219 73.570312 74.851562 70.535156 87.375 69.773438 Z M 90.734375 13.363281 L 90.734375 14.679688 C 90.734375 33.167969 90.734375 51.652344 90.734375 70.136719 C 90.734375 70.492188 90.734375 70.847656 90.734375 71.203125 C 90.757812 71.648438 90.597656 72.082031 90.292969 72.402344 C 89.988281 72.726562 89.566406 72.910156 89.121094 72.910156 C 87.875 73.050781 86.617188 73.152344 85.371094 73.253906 C 76.34375 73.980469 67.460938 75.957031 58.972656 79.125 C 58.765625 79.21875 58.566406 79.328125 58.371094 79.449219 L 95.640625 79.449219 L 95.640625 13.402344 Z M 40.542969 79.472656 C 35.84375 77.453125 30.933594 75.976562 25.902344 75.066406 C 20.835938 74.203125 15.710938 73.667969 10.601562 73.003906 C 8.5 72.734375 8.230469 72.449219 8.230469 70.316406 C 8.230469 51.769531 8.230469 33.222656 8.230469 14.679688 L 8.230469 13.410156 L 3.34375 13.410156 L 3.34375 79.480469 Z M 40.542969 79.472656 "/>
</g>
</svg>
