<?xml version="1.0" encoding="UTF-8"?>
<svg xmlns="http://www.w3.org/2000/svg" xmlns:xlink="http://www.w3.org/1999/xlink" width="70pt" height="95pt" viewBox="0 0 70 95" version="1.1">
<g id="surface1">
<path style=" stroke:none;fill-rule:nonzero;fill:rgb(64.705882%,64.313725%,57.647059%);fill-opacity:1;" d="M 34.921875 0.21875 C 48.472656 0.796875 58.800781 6.664062 65.554688 18.289062 C 68.082031 22.777344 69.523438 27.78125 69.761719 32.910156 C 70.105469 38.09375 68.597656 42.84375 66.609375 47.488281 C 62.011719 58.234375 55.632812 67.964844 48.75 77.402344 C 44.808594 82.820312 40.589844 88.058594 36.511719 93.371094 C 35.449219 94.75 34.402344 94.75 33.335938 93.429688 C 24.988281 83.351562 17.363281 72.710938 10.519531 61.582031 C 6.863281 55.742188 3.839844 49.546875 1.484375 43.09375 C -0.742188 36.570312 -0.363281 30.128906 1.816406 23.726562 C 4.191406 16.652344 8.867188 10.554688 15.117188 6.371094 C 19.554688 3.296875 24.683594 1.335938 30.054688 0.65625 C 31.683594 0.453125 33.316406 0.359375 34.921875 0.21875 Z M 34.863281 90.332031 C 35.078125 90.089844 35.226562 89.949219 35.359375 89.78125 C 42.65625 80.789062 49.40625 71.375 55.570312 61.589844 C 59.339844 55.5 62.78125 49.253906 65.214844 42.476562 C 66.898438 37.703125 67.113281 32.546875 65.839844 27.65625 C 64.113281 20.253906 59.6875 13.742188 53.40625 9.359375 C 48.496094 5.808594 42.632812 3.773438 36.554688 3.5 C 30.578125 3.140625 24.628906 4.511719 19.429688 7.441406 C 12.402344 11.246094 7.140625 17.582031 4.730469 25.128906 C 3.019531 30.3125 2.507812 35.578125 4.136719 40.921875 C 6.074219 46.8125 8.679688 52.46875 11.910156 57.773438 C 17.847656 67.957031 24.792969 77.464844 32.019531 86.777344 C 32.945312 87.929688 33.898438 89.085938 34.863281 90.332031 Z M 34.863281 90.332031 "/>
<path style=" stroke:none;fill-rule:nonzero;fill:rgb(64.705882%,64.313725%,57.647059%);fill-opacity:1;" d="M 34.90625 50.386719 C 25.894531 50.386719 18.589844 43.171875 18.589844 34.273438 C 18.589844 25.367188 25.894531 18.152344 34.90625 18.152344 C 43.921875 18.152344 51.226562 25.367188 51.226562 34.273438 C 51.203125 43.164062 43.910156 50.371094 34.90625 50.386719 Z M 34.90625 20.914062 C 27.453125 20.914062 21.40625 26.882812 21.40625 34.246094 C 21.40625 41.613281 27.453125 47.582031 34.90625 47.582031 C 42.359375 47.582031 48.40625 41.613281 48.40625 34.246094 C 48.398438 26.886719 42.359375 20.921875 34.90625 20.914062 Z M 34.90625 20.914062 "/>
</g>
</svg>
