<?xml version="1.0" encoding="UTF-8"?>
<svg xmlns="http://www.w3.org/2000/svg" xmlns:xlink="http://www.w3.org/1999/xlink" width="150pt" height="136pt" viewBox="0 0 150 136" version="1.1">
<g id="surface1">
<path style="fill:none;stroke-width:9.9;stroke-linecap:butt;stroke-linejoin:round;stroke:rgb(0%,63.529412%,37.254902%);stroke-opacity:1;stroke-miterlimit:4;" d="M 166.66525 328.052682 L 384.528394 328.052682 L 384.528394 25.715266 L 327.888594 25.715266 L 327.888594 70.914957 " transform="matrix(0.355316,0,0,0.355886,0,0.0631403)"/>
<path style="fill:none;stroke-width:9.9;stroke-linecap:butt;stroke-linejoin:round;stroke:rgb(0%,63.529412%,37.254902%);stroke-opacity:1;stroke-miterlimit:4;" d="M 121.447956 122.360064 L 121.447956 212.704564 " transform="matrix(0.355316,0,0,0.355886,0,0.0631403)"/>
<path style="fill:none;stroke-width:9.9;stroke-linecap:butt;stroke-linejoin:round;stroke:rgb(0%,63.529412%,37.254902%);stroke-opacity:1;stroke-miterlimit:4;" d="M 86.092056 154.02619 L 252.988175 4.948434 L 418.795912 158.16419 " transform="matrix(0.355316,0,0,0.355886,0,0.0631403)"/>
<path style="fill:none;stroke-width:9.9;stroke-linecap:butt;stroke-linejoin:round;stroke:rgb(0%,63.529412%,37.254902%);stroke-opacity:1;stroke-miterlimit:4;" d="M 88.74155 376.841566 C 46.4376 376.841566 5.002156 352.002591 5.002156 292.599792 C 5.002156 235.523932 46.206731 208.412899 89.0054 208.390946 C 134.167725 208.390946 172.5579 234.975126 172.5579 292.599792 C 172.524919 352.002591 134.277662 376.841566 88.74155 376.841566 Z M 88.74155 376.841566 " transform="matrix(0.355316,0,0,0.355886,0,0.0631403)"/>
<path style="fill:none;stroke-width:9.9;stroke-linecap:butt;stroke-linejoin:round;stroke:rgb(0%,63.529412%,37.254902%);stroke-opacity:1;stroke-miterlimit:4;" d="M 250.514581 130.350684 L 254.384381 130.350684 C 269.984512 130.350684 282.627325 142.995182 282.627325 158.603235 L 282.627325 196.7343 C 282.627325 212.331376 269.984512 224.975874 254.384381 224.975874 L 250.514581 224.975874 C 234.91445 224.975874 222.271637 212.331376 222.271637 196.7343 L 222.271637 158.603235 C 222.271637 142.995182 234.91445 130.350684 250.514581 130.350684 Z M 250.514581 130.350684 " transform="matrix(0.355316,0,0,0.355886,0,0.0631403)"/>
<path style="fill:none;stroke-width:8.25;stroke-linecap:butt;stroke-linejoin:round;stroke:rgb(0%,63.529412%,37.254902%);stroke-opacity:1;stroke-miterlimit:4;" d="M 63.455925 292.621744 L 114.016181 292.621744 " transform="matrix(0.355316,0,0,0.355886,0,0.0631403)"/>
<path style="fill:none;stroke-width:8.25;stroke-linecap:butt;stroke-linejoin:round;stroke:rgb(0%,63.529412%,37.254902%);stroke-opacity:1;stroke-miterlimit:4;" d="M 88.74155 267.332748 L 88.74155 317.899764 " transform="matrix(0.355316,0,0,0.355886,0,0.0631403)"/>
</g>
</svg>
