<?xml version="1.0" encoding="UTF-8"?>
<svg xmlns="http://www.w3.org/2000/svg" xmlns:xlink="http://www.w3.org/1999/xlink" width="149pt" height="134pt" viewBox="0 0 149 134" version="1.1">
<g id="surface1">
<path style="fill:none;stroke-width:9.9;stroke-linecap:butt;stroke-linejoin:round;stroke:rgb(0%,63.529412%,37.254902%);stroke-opacity:1;stroke-miterlimit:4;" d="M 201.319177 313.954916 C 127.001798 313.944766 54.000764 270.266787 54.000764 165.837542 C 54.000764 65.478682 126.460974 17.841974 201.717141 17.791221 C 281.126429 17.791221 348.61718 64.534677 348.61718 165.837542 C 348.627384 270.266787 281.381534 313.954916 201.319177 313.954916 Z M 201.319177 313.954916 " transform="matrix(0.382807,0,0,0.38483,0,0.133874)"/>
<path style=" stroke:none;fill-rule:nonzero;fill:rgb(0%,63.529412%,37.254902%);fill-opacity:1;" d="M 61.535156 51.605469 C 61.535156 52.742188 60.621094 53.664062 59.488281 53.664062 C 58.355469 53.664062 57.441406 52.742188 57.441406 51.605469 C 57.441406 50.46875 58.355469 49.546875 59.488281 49.546875 C 60.621094 49.546875 61.535156 50.46875 61.535156 51.605469 Z M 61.535156 51.605469 "/>
<path style=" stroke:none;fill-rule:nonzero;fill:rgb(0%,63.529412%,37.254902%);fill-opacity:1;" d="M 74.601562 51.417969 C 74.601562 52.554688 73.683594 53.476562 72.554688 53.476562 C 71.421875 53.476562 70.503906 52.554688 70.503906 51.417969 C 70.503906 50.277344 71.421875 49.359375 72.554688 49.359375 C 73.683594 49.359375 74.601562 50.277344 74.601562 51.417969 Z M 74.601562 51.417969 "/>
<path style=" stroke:none;fill-rule:nonzero;fill:rgb(0%,63.529412%,37.254902%);fill-opacity:1;" d="M 25.117188 18.25 L 12.699219 7.679688 L 9.667969 11.664062 Z M 25.117188 18.25 "/>
<path style=" stroke:none;fill-rule:nonzero;fill:rgb(0%,63.529412%,37.254902%);fill-opacity:1;" d="M 20.617188 21.554688 L 11.097656 18.921875 L 10.753906 23.554688 Z M 20.617188 21.554688 "/>
<path style=" stroke:none;fill-rule:nonzero;fill:rgb(0%,63.529412%,37.254902%);fill-opacity:1;" d="M 22.453125 2.03125 L 27.867188 0.132812 L 29.746094 15.316406 Z M 22.453125 2.03125 "/>
<path style="fill:none;stroke-width:6.6;stroke-linecap:butt;stroke-linejoin:round;stroke:rgb(0%,63.529412%,37.254902%);stroke-opacity:1;stroke-miterlimit:4;" d="M 147.665356 153.37262 C 147.665356 153.37262 158.95123 166.314619 172.553463 166.314619 C 186.145492 166.314619 196.421148 154.001956 196.421148 154.001956 " transform="matrix(0.382807,0,0,0.38483,0,0.133874)"/>
<path style="fill:none;stroke-width:9.9;stroke-linecap:butt;stroke-linejoin:round;stroke:rgb(0%,63.529412%,37.254902%);stroke-opacity:1;stroke-miterlimit:4;" d="M 248.166779 307.692004 C 267.034393 313.782356 307.024755 325.293123 328.474038 323.252855 L 321.320875 344.711197 " transform="matrix(0.382807,0,0,0.38483,0,0.133874)"/>
<path style="fill:none;stroke-width:9.9;stroke-linecap:butt;stroke-linejoin:round;stroke:rgb(0%,63.529412%,37.254902%);stroke-opacity:1;stroke-miterlimit:4;" d="M 142.655081 305.357369 C 142.655081 305.357369 101.174902 335.362506 78.276618 342.559272 L 66.347878 327.302939 " transform="matrix(0.382807,0,0,0.38483,0,0.133874)"/>
<path style="fill:none;stroke-width:9.9;stroke-linecap:butt;stroke-linejoin:round;stroke:rgb(0%,63.529412%,37.254902%);stroke-opacity:1;stroke-miterlimit:4;" d="M 301.94305 190.909493 C 301.94305 190.909493 360.117343 243.36773 388.740197 246.230196 " transform="matrix(0.382807,0,0,0.38483,0,0.133874)"/>
<path style="fill:none;stroke-width:9.9;stroke-linecap:butt;stroke-linejoin:round;stroke:rgb(0%,63.529412%,37.254902%);stroke-opacity:1;stroke-miterlimit:4;" d="M 61.755976 214.996838 C 61.755976 214.996838 33.153531 231.207326 0.755113 226.4467 " transform="matrix(0.382807,0,0,0.38483,0,0.133874)"/>
</g>
</svg>
