<?xml version="1.0" encoding="UTF-8"?>
<svg xmlns="http://www.w3.org/2000/svg" xmlns:xlink="http://www.w3.org/1999/xlink" width="150pt" height="135pt" viewBox="0 0 150 135" version="1.1">
<g id="surface1">
<path style="fill:none;stroke-width:6.6;stroke-linecap:butt;stroke-linejoin:round;stroke:rgb(0%,63.529412%,37.254902%);stroke-opacity:1;stroke-dasharray:13.2,13.2;stroke-miterlimit:4;" d="M 278.405791 304.547049 L 110.910242 304.547049 C 110.910242 304.547049 71.120951 303.216604 71.120951 266.120071 C 71.120951 252.462227 76.610564 243.74158 83.462182 238.191132 " transform="matrix(0.37571,0,0,0.375814,0.0252688,0)"/>
<path style="fill:none;stroke-width:6.6;stroke-linecap:butt;stroke-linejoin:round;stroke:rgb(0%,63.529412%,37.254902%);stroke-opacity:1;stroke-dasharray:13.2,13.2;stroke-miterlimit:4;" d="M 333.114766 345.312698 L 374.453208 345.312698 C 386.846423 345.312698 395.808631 338.307076 395.808631 324.680415 C 395.808631 311.053753 386.804835 304.547049 374.973058 304.547049 L 330.16202 304.547049 " transform="matrix(0.37571,0,0,0.375814,0.0252688,0)"/>
<path style="fill:none;stroke-width:9.9;stroke-linecap:butt;stroke-linejoin:round;stroke:rgb(0%,63.529412%,37.254902%);stroke-opacity:1;stroke-miterlimit:4;" d="M 295.467256 76.833167 L 295.914327 4.999561 C 295.914327 4.999561 204.597541 5.820694 151.312955 32.003425 C 99.515138 6.558675 13.188909 4.999561 8.229544 4.999561 L 6.711583 4.999561 L 4.996079 219.003628 C 4.996079 219.003628 98.059559 219.866339 151.36494 246.080252 C 176.556853 233.690488 209.951993 226.955113 238.16943 223.306785 " transform="matrix(0.37571,0,0,0.375814,0.0252688,0)"/>
<path style="fill:none;stroke-width:9.9;stroke-linecap:butt;stroke-linejoin:round;stroke:rgb(0%,63.529412%,37.254902%);stroke-opacity:1;stroke-miterlimit:4;" d="M 151.312955 32.045002 L 151.312955 246.10104 " transform="matrix(0.37571,0,0,0.375814,0.0252688,0)"/>
<path style="fill:none;stroke-width:9.9;stroke-linecap:butt;stroke-linejoin:round;stroke:rgb(0%,63.529412%,37.254902%);stroke-opacity:1;stroke-miterlimit:4;" d="M 382.479686 196.271738 C 398.012793 160.245797 387.199921 118.274432 356.196089 94.24328 C 325.181861 70.201733 281.836799 70.201733 250.832967 94.24328 C 219.818738 118.274432 209.005866 160.245797 224.538973 196.271738 L 224.830089 196.864201 C 225.93217 199.348391 227.138221 201.780609 228.469036 204.140069 L 303.524925 354.27241 L 378.591211 204.140069 C 379.922026 201.780609 381.138474 199.348391 382.230158 196.864201 Z M 382.479686 196.271738 " transform="matrix(0.37571,0,0,0.375814,0.0252688,0)"/>
<path style="fill:none;stroke-width:9.9;stroke-linecap:butt;stroke-linejoin:round;stroke:rgb(0%,63.529412%,37.254902%);stroke-opacity:1;stroke-miterlimit:4;" d="M 303.493734 198.631198 C 286.848149 198.631198 270.49368 188.860747 270.49368 165.494816 C 270.49368 143.033172 286.702591 132.368828 303.545719 132.358434 C 321.324576 132.358434 336.421009 142.814896 336.421009 165.494816 C 336.4522 188.860747 321.397355 198.631198 303.493734 198.631198 Z M 303.493734 198.631198 " transform="matrix(0.37571,0,0,0.375814,0.0252688,0)"/>
</g>
</svg>
