<svg xmlns="http://www.w3.org/2000/svg" viewBox="0 0 405.35 154.44"><defs><style>.cls-1{fill:#cc0;}</style></defs><title>logo_y_143x54.svg</title><g id="圖層_2" data-name="圖層 2"><g id="圖層_1-2" data-name="圖層 1"><path class="cls-1" d="M110.8,104.57c-.27,6.53-.5,12.78-.81,19a15.05,15.05,0,0,1-.68,4.62,15.7,15.7,0,0,1-2.69,4.24,2.56,2.56,0,0,0-.5,3c1.52,3.75,3,7.51,4.27,11.37,1,3,.14,4.73-2.35,6.59a1.55,1.55,0,0,1-2.33-.09,12.69,12.69,0,0,1-1.8-2.47c-2.48-4.77-4.89-9.57-7.35-14.35-1-1.94-2.24-2.27-4-.82-2,1.68-3.93,3.54-5.81,5.38-3.18,3.12-6.19,6.41-9.5,9.39a36.75,36.75,0,0,1-5.87,3.75c-.86.52-1.55.11-2.12-.64-1.2-1.55-1.42-3.12-.25-4.7,2.42-3.26,5-6.4,7.46-9.62a9.89,9.89,0,0,0,.87-1.74,7.13,7.13,0,0,0-1.94-.78,13.49,13.49,0,0,1-6-1.54,2.62,2.62,0,0,1-1.46-2.62A88.94,88.94,0,0,1,72.44,108c1.36-4,3-7.92,4.69-11.83a8.73,8.73,0,0,1,4.57-4.56c7-3.26,14.26-5.34,22.05-5.06a38.09,38.09,0,0,1,4.35.56,2.07,2.07,0,0,1,2,2.14C110.31,94.48,110.57,99.66,110.8,104.57ZM86.9,117.31l.06.28c2.51-.55,5.07-.93,7.51-1.7a9.7,9.7,0,0,0,5.26-4,5.4,5.4,0,0,0,.44-1.46,5.83,5.83,0,0,0-1.37-.25,10.82,10.82,0,0,0-2.46.33c-3.42,1-6.83,2-10.21,3.08a2.34,2.34,0,0,0-1.79,2.66c.12.52,1.57.74,2.41,1.09A.41.41,0,0,0,86.9,117.31Zm2-10.78h0c.34,0,.69,0,1,0,4-.3,7.6-1.42,10.06-4.85a6.24,6.24,0,0,0,.58-1.71c-.55-.12-1.15-.46-1.63-.33-4,1-8.1,2.1-12.08,3.37-.66.21-1,1.54-1.43,2.35a20.76,20.76,0,0,0,2.16,1.15A3.75,3.75,0,0,0,88.86,106.54Zm1.24,20.75a12.28,12.28,0,0,0,8.34-3.17,6.4,6.4,0,0,0,.88-1.43c-.56-.24-1.11-.51-1.68-.7a2.13,2.13,0,0,0-.88,0c-3.44.38-6.88.74-10.31,1.2a3,3,0,0,0-1.58.94c-1.12,1.17-.92,2,.63,2.42S88.56,127,90.1,127.29Z"/><path class="cls-1" d="M257.22,134.24a10.18,10.18,0,0,1-6.48-2.69c-2.28-2-4.39-4.18-6.58-6.28q-8.25-7.94-16.51-15.86a15.7,15.7,0,0,0-2.34-1.75c-1.39-.9-2.15-.7-3,.7-3.46,5.62-6.89,11.26-10.38,16.87-1.58,2.53-3.49,2.66-5.55.5-.27-.28-.51-.6-.78-.88a6,6,0,0,1-1.62-5.63c2.19-10.85,4.31-21.71,6.5-32.56a23.35,23.35,0,0,1,1.23-3.75,13.84,13.84,0,0,1,9-8.61c5.86-1.85,11.78-3.47,17.69-5.17a13.06,13.06,0,0,1,1.59-.19,1.4,1.4,0,0,1,1.78,1.25c.3,1.28.78,2.53,1,3.82a6,6,0,0,1-2.64,6.25c-3.62,2.41-7.32,4.7-11,7-1.89,1.2-2,1.81-.5,3.39,2,2.1,3.94,4.22,6,6.26,2.46,2.45,4.11,2.5,7,.57,3.82-2.55,7.7-5,11.53-7.54a1.61,1.61,0,0,1,2.56.52c2.86,4,3.21,4.18.14,8.43a31.78,31.78,0,0,1-4.29,4.4c-2.6,2.41-2.84,3.75-1.49,7,1.09,2.61,3,4.55,4.87,6.54s3.68,3.8,5.35,5.84c2.25,2.76,2.44,6.1,2.18,9.47a1.47,1.47,0,0,1-.9,1C260.14,133.55,258.67,133.87,257.22,134.24Z"/><path class="cls-1" d="M177,57.13c.93,0,1.86,0,2.79,0,2.75.13,3.3.63,3.59,3.33a13.4,13.4,0,0,1,0,2.64,3.26,3.26,0,0,1-2.31,3.06q-4.69,1.66-9.3,3.54a2.72,2.72,0,0,0-1.48,1.43c-1.12,3.73-2.14,7.5-3.13,11.27-.58,2.19,0,2.69,2.24,3a80.34,80.34,0,0,1,10.29,2.08c3.62,1,4.64,3,4,6.72-1.66,9.07-3.36,18.15-6.74,26.78-1.34,3.42-4.28,5.25-7.71,6.14-1.64.43-3.35-1.27-3.24-3.33a42.35,42.35,0,0,1,1.09-8.23c1.22-4.77,2.81-9.45,4.23-14.17.52-1.74,0-2.46-1.78-2.67-1.5-.17-3-.4-4.5-.57-1.84-.21-2.22.14-3,1.82-1.8,3.9-3.69,7.76-5.56,11.62a6.37,6.37,0,0,1-5.36,3.79c-1.23.14-1.65-.29-1.86-1.42-.59-3.1.18-5.94,1.23-8.85,3.61-10,7.07-20.07,10.55-30.13.53-1.53-.12-2.25-1.76-2.19-3.47.14-6.94.35-10.4.32-2.81,0-3.92-1.3-4-4.12,0-.68,0-1.37,0-2.06a5.56,5.56,0,0,1,3.35-5.38c3-1.59,6.23-1.89,9.47-2.32,4.06-.55,8.12-1.08,12.19-1.57,2.37-.29,4.76-.47,7.14-.71Z"/><path class="cls-1" d="M118.92,51c-1,4.6-1.79,9.29-3.15,13.79-1.18,3.9-4.2,6.52-7.74,8.45A50.33,50.33,0,0,1,92.91,78.1c-7.67,1.42-15.36,2.76-23.09,3.76-4.93.64-7.71-2.12-6.18-7.7s3.62-10.93,5.52-16.36a5.25,5.25,0,0,1,4-3.2c3-.74,6-1.31,9-1.78q8.17-1.24,16.37-2.25c4.94-.61,9.89-1.08,14.83-1.61,1-.1,1.94-.23,2.92-.26,2.29-.09,2.29-.07,2.28,2.17ZM81.44,66.83a3.13,3.13,0,0,0-1.66-3.19,2.63,2.63,0,0,0-3.34,1.13,29.07,29.07,0,0,0-2.68,4.49c-.61,1.26.31,2.29,1.13,3.09a2.43,2.43,0,0,0,1.93.59C79,72.41,81.42,69.06,81.44,66.83ZM93.7,65.2a25.63,25.63,0,0,0-.82-2.76c-.37-.89-1.14-1-2-.62-2.37,1.06-4.25,6.12-3.14,8.46a1.31,1.31,0,0,0,1.9.76C92.25,70,93.53,68.15,93.7,65.2Zm6.85,1.52c0,1.59,1.12,3,2,3,2.6.13,5.57-3.58,4.67-6a19.4,19.4,0,0,0-1.91-3.17,18,18,0,0,0-2.72,2.45A29.14,29.14,0,0,0,100.55,66.72Z"/><path class="cls-1" d="M64,36.26c-2.92,0-3.64-.78-3.22-3.71.1-.72.21-1.45.36-2.16.55-2.61,1.9-4.33,4.72-4.92,6.69-1.38,13.33-3,20-4.39A2.62,2.62,0,0,0,88.21,19c.62-2.51,1.26-5,2-7.49.54-1.9,4-3.56,5.79-2.68a2.34,2.34,0,0,1,.8,1.72c.11,1.76.06,3.52.07,5.28,0,2.57.35,2.93,2.86,2.86,3-.07,6.06-.23,9.09-.25,2,0,4,.15,6,.25,1.8.09,3.62,1.48,3.81,2.87.25,1.82-.82,3.37-3,3.93-3.73,1-7.49,1.81-11.24,2.7-2,.47-4,1-6,1.36a2.22,2.22,0,0,0-2.06,2.24c0,.49-.08,1-.09,1.46,0,1.53.7,2.15,2.2,1.84,1.91-.4,3.79-.93,5.72-1.22a14.47,14.47,0,0,1,3.05.17,13.22,13.22,0,0,1-1,3.65,7.15,7.15,0,0,1-2.63,2,42.68,42.68,0,0,1-12.25,4.3c-3,.68-6,1.31-9,1.91a8.43,8.43,0,0,1-2,.12c-1.2-.06-1.72-.65-1.86-1.94-.28-2.55.92-4,3.1-4.84,1.5-.6,3-1.16,4.51-1.73S88,35.92,87.57,34.1c-.31-1.34-1.39-1.35-2.44-1.18-6.31,1-12.61,2-18.92,3C65.49,36.08,64.76,36.17,64,36.26Z"/><path class="cls-1" d="M26.24,133.69A22.43,22.43,0,0,1,16.81,132c-2.26-1-4-2.46-4.25-5.12a7,7,0,0,1,.29-2.87c1.52-4.16,1.68-8.5,1.83-12.83a5.41,5.41,0,0,1,2.7-4.69,22.57,22.57,0,0,1,11.37-3.38,45.54,45.54,0,0,1,8.16,0c4.82.59,8.65,5.87,8,10.64-.52,4-1,8-1.6,12a12,12,0,0,1-.64,2.1,5.61,5.61,0,0,1-4.35,4.12c-4,.76-8,1.44-12.05,2.15Zm1.85-9.5c2.69,0,4.53-.71,5.4-2.68a16.33,16.33,0,0,0,1.32-5.58c.11-2-1-2.66-2.83-1.68a60.84,60.84,0,0,0-6.09,4c-1.4,1-1.35,2.35-.67,4.4C25.67,124,26.88,124.28,28.09,124.19Z"/><path class="cls-1" d="M202.48,52.07c-.58-9.63,4.48-17,11.65-23.36a2.21,2.21,0,0,1,1.7-.56,24.25,24.25,0,0,1,5,1.85c.53.29.79,1.56.75,2.36a46.57,46.57,0,0,1-.72,5.8c-.4,2.25.24,2.93,2.45,2.49,5.07-1,10.14-2,15.22-2.94a16.27,16.27,0,0,1,3.36-.18c2,.05,3.29,1.23,3.21,3.22a29.23,29.23,0,0,1-.9,5.61c-.12.49-.92.94-1.5,1.16-5.86,2.17-11.75,4.26-17.61,6.41-4.39,1.61-8.71,3.44-13.16,4.86a20.22,20.22,0,0,1-5.94.53,3.34,3.34,0,0,1-3.52-3.38C202.41,54.82,202.48,53.68,202.48,52.07Z"/><path class="cls-1" d="M42.63,35.42a10.06,10.06,0,0,1,7.25,4.38c1.42,2,.1,7.18-3.27,7.87C33.22,50.39,19.88,53.25,6.51,56c-.57.12-1.17.08-1.75.15-2.92.39-3.27.14-4.16-2.69-1.68-5.31.19-8.83,5.34-10.34,6.35-1.87,12.83-3.34,19.3-4.75,5.29-1.15,10.65-1.95,16-2.89C41.6,35.47,42,35.47,42.63,35.42Z"/><path class="cls-1" d="M397.93,126c-1,2-1.87,3.71-2.87,5.38a1.72,1.72,0,0,1-1.48.41c-7.76-1.73-15.5-3.53-23.25-5.3l-58.78-13.4-7.4-1.71c1-1.06,1.82-2,2.72-2.83a1.45,1.45,0,0,1,1.09-.15q16.59,3.22,33.16,6.49l44.51,8.7Z"/><path class="cls-1" d="M381.83,73.18c.74-2,1.35-3.55,1.93-5.13,1.36-3.73,1.36-3.67,5.25-3.83a2,2,0,0,1,2.3,1.47c1,2.43,2.19,4.8,3.31,7.18a2.93,2.93,0,0,0,1.06,1.3l2.19-9.31c.29-1.23.54-2.48.91-3.69.09-.29.61-.69.86-.64,1.85.38,3.68.86,5.72,1.36-.85,2.66-1.65,5.19-2.48,7.72-1.43,4.36-2.9,8.7-4.3,13.07a1.81,1.81,0,0,1-1.83,1.46c-4.29.39-4.29.43-6.4-3.33l-3.08-5.5a14.44,14.44,0,0,0-.72,1.29c-1,2.39-2,4.79-2.95,7.18-.4,1-3.68,2.16-4.55,1.64a1.6,1.6,0,0,1-.53-.84q-3.38-9.83-6.73-19.66a2.72,2.72,0,0,1,0-.63c2.09-.49,4.2-1,6.33-1.43.27-.05.88.63,1,1.07.75,2.47,1.4,5,2.1,7.46C381.35,71.84,381.52,72.28,381.83,73.18Z"/><path class="cls-1" d="M370.38,3.2,301.48,50.49l-1.17-2.84,10.81-8.43q24.1-18.76,48.21-37.51c2.06-1.6,4.26-2.5,6.8-.74A39.71,39.71,0,0,0,370.38,3.2Z"/><path class="cls-1" d="M320.68,67.6a8,8,0,0,1,8.21-2.51,4.38,4.38,0,0,1,3.45,2.42,50.09,50.09,0,0,1,2.75,7.68c.91,3.88,1.43,7.85,2.17,12.05-1.94,0-3.54.06-5.11-.06-.26,0-.58-.83-.66-1.31-.53-3.32-1-6.65-1.49-10a3.77,3.77,0,0,0-.21-.7c-1.06-3-1.82-3.58-4.67-3.33a5.34,5.34,0,0,0-5,4.89c-.19,3.86-.41,7.71-.53,11.57,0,1-.4,1.34-1.38,1.33-1.27,0-2.54.14-3.8.25-.79.07-1.16-.2-1.14-1.06.17-6.89.25-13.79.5-20.68.1-2.77.26-2.76,3-2.74.49,0,1,0,1.47,0C319.38,65.52,320.61,65.51,320.68,67.6Z"/><path class="cls-1" d="M345,76.16a18.6,18.6,0,0,1,3.61-9.69c1.48-2.07,3.95-2.55,6.31-2.43a15.1,15.1,0,0,1,4.9,1.29c3.17,1.32,3.77,4.24,3.7,7.19a28,28,0,0,1-2.23,10.24,8,8,0,0,1-12.8,2.63C346.14,83.11,345,80.32,345,76.16Zm6-.19c0,3.21,1.49,4.74,3.88,4.42,1.91-.26,3.32-1.9,3.62-4.23.25-2-.8-4.19-2.44-4.74a2.81,2.81,0,0,0-2.05.15A5.86,5.86,0,0,0,350.93,76Z"/><path class="cls-1" d="M30.93,63.36a19.2,19.2,0,0,1,10,3.07,2.66,2.66,0,0,1,1.26,3c-.2,1.26-1.1,1.5-2.08,1.66-6.44,1.08-12.87,2.3-19.34,3.16-2.62.35-5.46.24-7-2.79-.81-1.64-.7-2.23.91-3,4.75-2.33,9.61-4.37,14.95-4.92Z"/><path class="cls-1" d="M21.84,91c-1.71-.18-3.14-.2-4.51-.49C14.94,90,14.21,88,15.63,86a5.6,5.6,0,0,1,1.9-1.78c5.93-3,12.11-4.3,18.65-2.38a22.73,22.73,0,0,1,4.17,1.78,9.8,9.8,0,0,1,2.56,1.91c1,1.1.79,2-.69,2.31-3.28.73-6.58,1.41-9.9,1.9C28.75,90.31,25.15,90.6,21.84,91Z"/><path class="cls-1" d="M169.22,45.41a36.27,36.27,0,0,1-1.8,4,1.78,1.78,0,0,1-1.71.32,12.14,12.14,0,0,1-3.27-2.62,29.45,29.45,0,0,1-5.73-13.64A4,4,0,0,1,162,29a5.69,5.69,0,0,1,4.22,4.09C167.24,37.1,168.19,41.13,169.22,45.41Z"/><path class="cls-1" d="M12,20.47c.05-2.22.48-2.64,2.64-2.33a5.26,5.26,0,0,1,3.92,2.27,34.7,34.7,0,0,1,4.87,10,6,6,0,0,1,.22,1.44c0,1.31-.55,1.83-1.7,1.29-4.62-2.17-8.51-5.06-9.64-10.46C12.17,21.92,12.1,21.19,12,20.47Z"/></g></g></svg>