<svg xmlns="http://www.w3.org/2000/svg" viewBox="0 0 174.89 66.64"><defs><style>.cls-1{fill:#fff;}</style></defs><title>logo_w</title><g id="圖層_2" data-name="圖層 2"><g id="圖層_1-2" data-name="圖層 1"><path class="cls-1" d="M47.81,45.12c-.12,2.82-.22,5.52-.35,8.21a6.49,6.49,0,0,1-.29,2A6.77,6.77,0,0,1,46,57.15a1.1,1.1,0,0,0-.22,1.3c.66,1.62,1.31,3.24,1.84,4.9a2.22,2.22,0,0,1-1,2.84.67.67,0,0,1-1,0,5.47,5.47,0,0,1-.77-1.07C43.76,63,42.72,61,41.66,58.9c-.43-.84-1-1-1.72-.35s-1.69,1.53-2.51,2.32c-1.37,1.34-2.67,2.77-4.1,4a15.85,15.85,0,0,1-2.53,1.62c-.37.22-.67,0-.92-.27a1.54,1.54,0,0,1-.11-2c1-1.4,2.15-2.76,3.22-4.15a4.27,4.27,0,0,0,.37-.75,3.08,3.08,0,0,0-.84-.34,5.82,5.82,0,0,1-2.6-.66,1.13,1.13,0,0,1-.63-1.13,38.37,38.37,0,0,1,2-10.58c.59-1.73,1.32-3.42,2-5.1a3.77,3.77,0,0,1,2-2,20.52,20.52,0,0,1,9.51-2.18,16.43,16.43,0,0,1,1.88.24.89.89,0,0,1,.85.93C47.59,40.77,47.7,43,47.81,45.12Zm-10.31,5.5,0,.12c1.08-.24,2.19-.4,3.24-.74A4.19,4.19,0,0,0,43,48.26a2.33,2.33,0,0,0,.19-.63,2.52,2.52,0,0,0-.59-.11,4.67,4.67,0,0,0-1.06.14c-1.47.43-2.94.86-4.41,1.33a1,1,0,0,0-.77,1.15c.05.22.68.32,1,.47ZM38.34,46h0c.15,0,.3,0,.44,0a5.44,5.44,0,0,0,4.34-2.09,2.69,2.69,0,0,0,.25-.74c-.24-.05-.5-.2-.7-.14-1.75.45-3.5.9-5.21,1.46-.28.09-.41.66-.62,1a9,9,0,0,0,.93.5A1.62,1.62,0,0,0,38.34,46Zm.53,9a5.3,5.3,0,0,0,3.6-1.37,2.76,2.76,0,0,0,.38-.62c-.24-.1-.48-.22-.73-.3a.92.92,0,0,0-.38,0c-1.48.17-3,.32-4.45.52a1.3,1.3,0,0,0-.68.41c-.48.5-.4.88.27,1S38.21,54.81,38.87,54.92Z"/><path class="cls-1" d="M111,57.92a4.39,4.39,0,0,1-2.8-1.16c-1-.86-1.89-1.8-2.84-2.71q-3.56-3.42-7.12-6.84a6.78,6.78,0,0,0-1-.76c-.6-.39-.93-.3-1.3.3-1.49,2.43-3,4.86-4.48,7.28-.68,1.09-1.51,1.15-2.39.22l-.33-.38a2.59,2.59,0,0,1-.7-2.43c.94-4.68,1.86-9.37,2.8-14a10.08,10.08,0,0,1,.53-1.62,6,6,0,0,1,3.9-3.71c2.53-.8,5.08-1.5,7.63-2.23a5.63,5.63,0,0,1,.69-.08.61.61,0,0,1,.77.54c.13.55.34,1.09.42,1.65a2.57,2.57,0,0,1-1.14,2.7c-1.56,1-3.16,2-4.74,3-.82.52-.86.78-.21,1.46.86.9,1.7,1.82,2.58,2.7,1.06,1.06,1.77,1.08,3,.25,1.65-1.1,3.32-2.16,5-3.25a.7.7,0,0,1,1.1.22c1.23,1.72,1.39,1.8.06,3.64a13.71,13.71,0,0,1-1.85,1.9c-1.12,1-1.23,1.62-.64,3a9.58,9.58,0,0,0,2.1,2.82c.78.83,1.59,1.64,2.31,2.52a5.47,5.47,0,0,1,.94,4.09.63.63,0,0,1-.39.41C112.24,57.62,111.6,57.76,111,57.92Z"/><path class="cls-1" d="M76.39,24.65c.4,0,.8,0,1.2,0,1.19.06,1.43.27,1.55,1.44a5.78,5.78,0,0,1,0,1.14,1.41,1.41,0,0,1-1,1.32q-2,.72-4,1.53a1.17,1.17,0,0,0-.64.62c-.48,1.61-.92,3.23-1.35,4.86-.25.95,0,1.16,1,1.31a34.66,34.66,0,0,1,4.44.9c1.56.45,2,1.31,1.71,2.9a61.69,61.69,0,0,1-2.91,11.55A4.53,4.53,0,0,1,73,54.86c-.71.18-1.45-.55-1.4-1.44a18.27,18.27,0,0,1,.47-3.55c.53-2.06,1.21-4.08,1.82-6.11.22-.75,0-1.06-.77-1.15l-1.94-.25c-.79-.09-1,.06-1.3.78-.78,1.68-1.59,3.35-2.4,5a2.75,2.75,0,0,1-2.31,1.63c-.53.06-.71-.12-.8-.61a7.1,7.1,0,0,1,.53-3.82c1.56-4.32,3-8.66,4.55-13,.23-.66-.05-1-.76-.94-1.5.06-3,.15-4.49.14-1.21,0-1.69-.56-1.74-1.78,0-.3,0-.59,0-.89A2.4,2.4,0,0,1,64,26.58a11.65,11.65,0,0,1,4.09-1c1.75-.24,3.5-.47,5.26-.68,1-.12,2.05-.2,3.08-.3Z"/><path class="cls-1" d="M51.31,22c-.44,2-.77,4-1.36,6a6.39,6.39,0,0,1-3.34,3.65,21.71,21.71,0,0,1-6.52,2.12c-3.31.61-6.63,1.19-10,1.62C28,35.59,26.8,34.4,27.46,32s1.56-4.71,2.38-7.06a2.26,2.26,0,0,1,1.71-1.38c1.28-.32,2.58-.57,3.89-.77q3.52-.54,7.06-1c2.13-.26,4.27-.47,6.4-.7.42,0,.84-.1,1.26-.11,1,0,1,0,1,.94ZM35.14,28.83a1.35,1.35,0,0,0-.72-1.38,1.14,1.14,0,0,0-1.44.49,12.54,12.54,0,0,0-1.16,1.94c-.26.54.13,1,.49,1.33a1,1,0,0,0,.83.25A3.3,3.3,0,0,0,35.14,28.83Zm5.29-.7a11.06,11.06,0,0,0-.36-1.19c-.16-.38-.49-.43-.85-.27a3.47,3.47,0,0,0-1.36,3.65.56.56,0,0,0,.82.33A2.6,2.6,0,0,0,40.43,28.13Zm3,.66c0,.69.49,1.29.88,1.32a2.27,2.27,0,0,0,2-2.59,8.37,8.37,0,0,0-.82-1.37,7.75,7.75,0,0,0-1.17,1.06A12.57,12.57,0,0,0,43.38,28.79Z"/><path class="cls-1" d="M27.63,15.65c-1.26,0-1.57-.34-1.39-1.6,0-.31.09-.62.15-.93a2.44,2.44,0,0,1,2-2.12c2.88-.6,5.75-1.28,8.63-1.9a1.13,1.13,0,0,0,1-.9c.27-1.08.55-2.16.85-3.23a2.17,2.17,0,0,1,2.5-1.16,1,1,0,0,1,.35.74c0,.76,0,1.52,0,2.28,0,1.11.15,1.26,1.23,1.24C44.32,8,45.62,8,46.93,8c.86,0,1.73.06,2.59.11a1.79,1.79,0,0,1,1.64,1.24A1.52,1.52,0,0,1,49.88,11c-1.61.42-3.23.78-4.85,1.17-.86.2-1.72.43-2.58.59a1,1,0,0,0-.89,1c0,.21,0,.42,0,.63,0,.66.3.93.95.79.82-.17,1.64-.4,2.47-.52a6.24,6.24,0,0,1,1.32.07,5.7,5.7,0,0,1-.42,1.58,3.09,3.09,0,0,1-1.13.88A18.41,18.41,0,0,1,39.41,19c-1.29.3-2.59.56-3.89.83a3.64,3.64,0,0,1-.88.05c-.52,0-.74-.28-.8-.84A1.84,1.84,0,0,1,35.18,17c.65-.26,1.3-.5,1.95-.74s.84-.72.66-1.51c-.13-.58-.6-.58-1.05-.51l-8.16,1.31Z"/><path class="cls-1" d="M11.32,57.68a9.68,9.68,0,0,1-4.07-.75,2.64,2.64,0,0,1-1.84-2.21,3,3,0,0,1,.13-1.24A17.61,17.61,0,0,0,6.33,48a2.34,2.34,0,0,1,1.17-2,9.74,9.74,0,0,1,4.91-1.46,19.65,19.65,0,0,1,3.52,0,4.28,4.28,0,0,1,3.47,4.59c-.22,1.73-.45,3.46-.69,5.18a5.15,5.15,0,0,1-.27.9,2.42,2.42,0,0,1-1.88,1.78c-1.73.33-3.47.62-5.2.93Zm.8-4.1c1.16,0,2-.31,2.33-1.15A7,7,0,0,0,15,50c0-.87-.42-1.15-1.22-.73A26.25,26.25,0,0,0,11.17,51c-.61.42-.58,1-.29,1.9A1.07,1.07,0,0,0,12.12,53.58Z"/><path class="cls-1" d="M87.36,22.46c-.25-4.15,1.93-7.34,5-10.08a1,1,0,0,1,.73-.24,10.46,10.46,0,0,1,2.17.8c.23.12.34.67.32,1a20.09,20.09,0,0,1-.31,2.5c-.17,1,.1,1.26,1.06,1.07,2.19-.44,4.37-.87,6.56-1.27a7,7,0,0,1,1.45-.08,1.28,1.28,0,0,1,1.38,1.39,12.61,12.61,0,0,1-.39,2.42c-.05.21-.4.41-.65.5-2.53.93-5.07,1.84-7.6,2.77-1.89.7-3.76,1.48-5.68,2.1a8.73,8.73,0,0,1-2.56.23,1.44,1.44,0,0,1-1.52-1.46C87.33,23.65,87.36,23.16,87.36,22.46Z"/><path class="cls-1" d="M18.39,15.28a4.34,4.34,0,0,1,3.13,1.89c.61.84,0,3.1-1.41,3.4C14.33,21.74,8.58,23,2.81,24.18c-.25.05-.51,0-.76.07-1.26.17-1.41.06-1.8-1.16-.73-2.29.08-3.81,2.31-4.46,2.74-.81,5.53-1.44,8.33-2,2.28-.49,4.59-.84,6.89-1.25C17.95,15.3,18.12,15.3,18.39,15.28Z"/><path class="cls-1" d="M171.69,54.37c-.44.84-.81,1.6-1.24,2.32a.74.74,0,0,1-.64.18c-3.35-.75-6.69-1.52-10-2.29L134.42,48.8l-3.19-.74c.43-.46.78-.86,1.17-1.22a.62.62,0,0,1,.47-.07l14.31,2.8,19.21,3.75Z"/><path class="cls-1" d="M164.74,31.57c.32-.85.58-1.53.83-2.21.59-1.61.59-1.59,2.27-1.65a.88.88,0,0,1,1,.63c.44,1,.95,2.07,1.43,3.1a1.26,1.26,0,0,0,.46.56l.95-4c.13-.53.23-1.07.39-1.59,0-.12.27-.3.37-.27.8.17,1.59.37,2.47.59-.37,1.15-.71,2.24-1.07,3.33-.62,1.88-1.25,3.75-1.85,5.64a.78.78,0,0,1-.79.63c-1.85.17-1.85.19-2.76-1.44l-1.33-2.37a6.23,6.23,0,0,0-.31.56c-.43,1-.84,2.07-1.27,3.1a2.28,2.28,0,0,1-2,.71.69.69,0,0,1-.23-.36q-1.46-4.24-2.9-8.48a1.17,1.17,0,0,1,0-.27c.9-.21,1.81-.45,2.73-.62.12,0,.38.27.44.46.32,1.07.61,2.14.91,3.22C164.53,31,164.61,31.19,164.74,31.57Z"/><path class="cls-1" d="M159.8,1.38l-29.73,20.4-.51-1.23,4.66-3.64Q144.63,8.82,155,.73A2.26,2.26,0,0,1,158,.42,17.13,17.13,0,0,0,159.8,1.38Z"/><path class="cls-1" d="M138.36,29.17a3.43,3.43,0,0,1,3.54-1.08,1.89,1.89,0,0,1,1.49,1,21.61,21.61,0,0,1,1.19,3.31c.39,1.67.62,3.39.94,5.2-.84,0-1.53,0-2.21,0-.11,0-.25-.36-.29-.57-.23-1.43-.43-2.87-.64-4.3a1.62,1.62,0,0,0-.09-.3c-.46-1.28-.78-1.54-2-1.44a2.3,2.3,0,0,0-2.17,2.11c-.08,1.66-.18,3.33-.23,5,0,.45-.17.58-.6.58s-1.09.06-1.64.11c-.34,0-.5-.09-.49-.46.07-3,.11-5.95.22-8.92,0-1.19.11-1.19,1.3-1.18.21,0,.42,0,.63,0C137.8,28.27,138.33,28.27,138.36,29.17Z"/><path class="cls-1" d="M148.84,32.86a8,8,0,0,1,1.56-4.18,3,3,0,0,1,2.72-1,6.51,6.51,0,0,1,2.11.55c1.37.57,1.63,1.83,1.6,3.1a12.07,12.07,0,0,1-1,4.42,3.43,3.43,0,0,1-5.52,1.13A5.09,5.09,0,0,1,148.84,32.86Zm2.57-.08c0,1.38.64,2,1.68,1.91a2.11,2.11,0,0,0,.51-3.87,1.21,1.21,0,0,0-.89.07A2.53,2.53,0,0,0,151.41,32.78Z"/><path class="cls-1" d="M13.34,27.34a8.28,8.28,0,0,1,4.31,1.33,1.15,1.15,0,0,1,.54,1.29c-.09.55-.48.65-.9.72-2.78.47-5.55,1-8.34,1.36-1.13.15-2.36.11-3-1.2-.35-.71-.3-1,.39-1.3A19.16,19.16,0,0,1,12.8,27.4Z"/><path class="cls-1" d="M9.42,39.25c-.74-.08-1.36-.09-1.95-.21a1.13,1.13,0,0,1-.73-1.92,2.42,2.42,0,0,1,.82-.77,10.69,10.69,0,0,1,8-1,9.81,9.81,0,0,1,1.8.77,4.23,4.23,0,0,1,1.1.83c.44.48.34.86-.3,1-1.41.32-2.84.61-4.27.82S10.85,39.09,9.42,39.25Z"/><path class="cls-1" d="M73,19.59a15.65,15.65,0,0,1-.78,1.73.77.77,0,0,1-.74.14,5.24,5.24,0,0,1-1.41-1.13,12.71,12.71,0,0,1-2.47-5.89,1.74,1.74,0,0,1,2.3-1.94,2.46,2.46,0,0,1,1.82,1.77C72.15,16,72.57,17.75,73,19.59Z"/><path class="cls-1" d="M5.18,8.83c0-1,.21-1.14,1.14-1A2.27,2.27,0,0,1,8,8.8a15,15,0,0,1,2.1,4.3,2.6,2.6,0,0,1,.1.62c0,.57-.24.79-.73.56-2-.93-3.67-2.18-4.16-4.51C5.25,9.46,5.22,9.14,5.18,8.83Z"/></g></g></svg>