<svg xmlns="http://www.w3.org/2000/svg" viewBox="0 0 396.26 355.32"><defs><style>.cls-1{fill:#cc0;}</style></defs><title>step01_y</title><g id="圖層_2" data-name="圖層 2"><g id="圖層_1-2" data-name="圖層 1"><rect class="cls-1" x="174.07" y="300.1" width="13.21" height="5"/><rect class="cls-1" x="233.52" y="300.1" width="13.21" height="5"/><path class="cls-1" d="M67.53,255.07l4.9,1A31,31,0,0,1,77,244.81L72.85,242A35.93,35.93,0,0,0,67.53,255.07Z"/><path class="cls-1" d="M67.35,272.38a37.21,37.21,0,0,0,4.87,13.16l4.26-2.61a32.24,32.24,0,0,1-4.2-11.4Z"/><rect class="cls-1" x="144.33" y="300.1" width="13.21" height="5"/><rect class="cls-1" x="114.58" y="300.1" width="13.23" height="5"/><path class="cls-1" d="M84.75,297.77a50.64,50.64,0,0,0,12.77,5.39l1.33-4.82a45.67,45.67,0,0,1-11.51-4.85Z"/><rect class="cls-1" x="203.79" y="300.1" width="13.21" height="5"/><path class="cls-1" d="M372.5,340.86H360.88v5H372.5q.87,0,1.71,0l-.25-5Q373.24,340.86,372.5,340.86Z"/><path class="cls-1" d="M391.28,324.89a17.15,17.15,0,0,1-4.21,10.51l3.68,3.38a22,22,0,0,0,5.51-13.49Z"/><rect class="cls-1" x="348.86" y="300.1" width="13.2" height="5"/><path class="cls-1" d="M391.7,307.94A21.15,21.15,0,0,0,379,300.66l-1,4.91a16,16,0,0,1,9.76,5.51Z"/><path class="cls-1" d="M332.36,305.1v-5H331l48.25-96.51c1.34-2.38,2.58-4.87,3.7-7.41l.26-.52a3,3,0,0,0,.2-.52,89.05,89.05,0,0,0-81.88-124c-1.68,0-3.34.05-5,.14L297,3a3,3,0,0,0-3-3h0c-3.73,0-91.14,1.16-144.57,26.75C96.61,1.5,10,.05,6.29,0H4.76a3,3,0,0,0-3,3L0,217a3,3,0,0,0,3,3c.92,0,93,1.17,145.06,26.78a3,3,0,0,0,2.65,0c20.4-10,48.55-17.49,83.67-22.19l37.73,75.45h-8.83v5h11.33l24.28,48.56a3,3,0,0,0,5.37,0L328.5,305.1ZM7.73,6C19.86,6.3,97.84,8.93,146.36,32V239.42C97.55,217.4,22.2,214.49,6,214.11Zm144.62,233.4V32C199.15,9.76,274.87,6.51,290.94,6.07l-.4,65.73a89.06,89.06,0,0,0-70.88,123.35,2.94,2.94,0,0,0,.2.52l.26.53c1.12,2.53,2.37,5,3.7,7.41L231.51,219C199.07,223.45,172.49,230.32,152.36,239.43ZM301.54,345.61,229.16,200.85l-.07-.13c-1.27-2.26-2.45-4.62-3.51-7l-.06-.12-.12-.23-.08-.21a83,83,0,1,1,152.43,0l-.08.21-.11.23-.06.13c-1.06,2.4-2.25,4.77-3.51,7l-.07.13Z"/><rect class="cls-1" x="331.16" y="340.86" width="13.21" height="5"/><path class="cls-1" d="M326.75,136.25c-6.36-5.78-15-8.84-25.09-8.84h0c-17.37,0-36.05,11.32-36.05,36.13,0,26.68,19.37,36.14,36,36.14h0c10.21,0,18.92-3,25.2-8.57,7-6.29,10.76-15.83,10.76-27.57C337.5,152.08,333.78,142.64,326.75,136.25Zm-4,50.39c-5.16,4.61-12.49,7-21.2,7h0c-14.49,0-30-7.92-30-30.14,0-20.8,15.1-30.12,30.06-30.13h0c8.53,0,15.81,2.52,21.05,7.28,5.83,5.3,8.79,13,8.79,22.85C331.5,173.67,328.55,181.44,322.74,186.64Z"/></g></g></svg>