<?xml version="1.0" encoding="UTF-8"?>
<svg xmlns="http://www.w3.org/2000/svg" xmlns:xlink="http://www.w3.org/1999/xlink" width="150pt" height="135pt" viewBox="0 0 150 135" version="1.1">
<g id="surface1">
<path style="fill:none;stroke-width:6;stroke-linecap:butt;stroke-linejoin:round;stroke:rgb(0%,63.529412%,37.254902%);stroke-opacity:1;stroke-miterlimit:4;" d="M 153.758577 326.093235 L 371.635665 326.093235 L 371.635665 23.766148 L 315.004046 23.766148 L 315.004046 68.965503 " transform="matrix(0.366265,0,0,0.367901,0.000000000000008327,0.0103066)"/>
<path style="fill:none;stroke-width:6;stroke-linecap:butt;stroke-linejoin:round;stroke:rgb(0%,63.529412%,37.254902%);stroke-opacity:1;stroke-miterlimit:4;" d="M 108.549268 120.408037 L 108.549268 210.753657 " transform="matrix(0.366265,0,0,0.367901,0.000000000000008327,0.0103066)"/>
<path style="fill:none;stroke-width:6;stroke-linecap:butt;stroke-linejoin:round;stroke:rgb(0%,63.529412%,37.254902%);stroke-opacity:1;stroke-miterlimit:4;" d="M 73.194501 152.0805 L 240.092466 2.998017 L 405.891928 156.210768 " transform="matrix(0.366265,0,0,0.367901,0.000000000000008327,0.0103066)"/>
<path style="fill:none;stroke-width:5.61;stroke-linecap:butt;stroke-linejoin:round;stroke:rgb(0%,63.529412%,37.254902%);stroke-opacity:1;stroke-miterlimit:4;" d="M 81.225312 364.083202 C 41.636504 364.083202 2.815583 340.841157 2.815583 285.24712 C 2.815583 231.819083 41.380542 206.453507 81.438614 206.421654 C 123.715024 206.421654 159.635041 231.309436 159.635041 285.24712 C 159.635041 340.841157 123.843005 364.083202 81.225312 364.083202 Z M 81.225312 364.083202 " transform="matrix(0.366265,0,0,0.367901,0.000000000000008327,0.0103066)"/>
<path style="fill:none;stroke-width:6;stroke-linecap:butt;stroke-linejoin:round;stroke:rgb(0%,63.529412%,37.254902%);stroke-opacity:1;stroke-miterlimit:4;" d="M 237.618166 128.403131 L 241.478928 128.403131 C 257.081952 128.403131 269.730747 141.048757 269.730747 156.646091 L 269.730747 194.784705 C 269.730747 210.382039 257.081952 223.038283 241.478928 223.038283 L 237.618166 223.038283 C 222.015142 223.038283 209.377012 210.382039 209.377012 194.784705 L 209.377012 156.646091 C 209.377012 141.048757 222.015142 128.403131 237.618166 128.403131 Z M 237.618166 128.403131 " transform="matrix(0.366265,0,0,0.367901,0.000000000000008327,0.0103066)"/>
<path style="fill:none;stroke-width:4.68;stroke-linecap:butt;stroke-linejoin:round;stroke:rgb(0%,63.529412%,37.254902%);stroke-opacity:1;stroke-miterlimit:4;" d="M 57.548816 285.257737 L 104.880478 285.257737 " transform="matrix(0.366265,0,0,0.367901,0.000000000000008327,0.0103066)"/>
<path style="fill:none;stroke-width:4.68;stroke-linecap:butt;stroke-linejoin:round;stroke:rgb(0%,63.529412%,37.254902%);stroke-opacity:1;stroke-miterlimit:4;" d="M 81.225312 261.590986 L 81.225312 308.913871 " transform="matrix(0.366265,0,0,0.367901,0.000000000000008327,0.0103066)"/>
</g>
</svg>
