<?xml version="1.0" encoding="UTF-8"?>
<svg xmlns="http://www.w3.org/2000/svg" xmlns:xlink="http://www.w3.org/1999/xlink" width="149pt" height="134pt" viewBox="0 0 149 134" version="1.1">
<g id="surface1">
<path style="fill:none;stroke-width:5;stroke-linecap:butt;stroke-linejoin:round;stroke:rgb(0%,63.529412%,37.254902%);stroke-opacity:1;stroke-dasharray:13.2,13.2;stroke-miterlimit:4;" d="M 276.452697 302.590042 L 109.004681 302.590042 C 109.004681 302.590042 69.199074 301.267193 69.199074 264.165408 C 69.199074 250.502857 74.696684 241.790655 81.547871 236.24089 " transform="matrix(0.375163,0,0,0.377972,0,0.000515416)"/>
<path style="fill:none;stroke-width:5;stroke-linecap:butt;stroke-linejoin:round;stroke:rgb(0%,63.529412%,37.254902%);stroke-opacity:1;stroke-dasharray:13.2,13.2;stroke-miterlimit:4;" d="M 331.158074 343.360666 L 372.494265 343.360666 C 384.895122 343.360666 393.859974 336.353699 393.859974 322.722152 C 393.859974 309.10094 384.863886 302.590042 373.025284 302.590042 L 328.201027 302.590042 " transform="matrix(0.375163,0,0,0.377972,0,0.000515416)"/>
<path style="fill:none;stroke-width:6;stroke-linecap:butt;stroke-linejoin:round;stroke:rgb(0%,63.529412%,37.254902%);stroke-opacity:1;stroke-miterlimit:4;" d="M 293.518192 74.884299 L 293.997151 2.995716 C 293.997151 2.995716 202.703518 3.863836 149.403779 30.093454 C 97.56174 4.618274 11.24511 3.06806 6.288932 2.995716 L 4.758347 2.995716 L 2.998696 217.049243 C 2.998696 217.049243 96.05198 217.927697 149.351719 244.14698 C 174.569919 231.74527 207.951236 225.027676 236.168132 221.369172 " transform="matrix(0.375163,0,0,0.377972,0,0.000515416)"/>
<path style="fill:none;stroke-width:6;stroke-linecap:butt;stroke-linejoin:round;stroke:rgb(0%,63.529412%,37.254902%);stroke-opacity:1;stroke-miterlimit:4;" d="M 149.351719 30.093454 L 149.351719 244.14698 " transform="matrix(0.375163,0,0,0.377972,0,0.000515416)"/>
<path style="fill:none;stroke-width:6;stroke-linecap:butt;stroke-linejoin:round;stroke:rgb(0%,63.529412%,37.254902%);stroke-opacity:1;stroke-miterlimit:4;" d="M 380.532436 194.312773 C 396.067347 158.285804 385.259547 116.326682 354.241786 92.288033 C 323.234436 68.259719 279.899115 68.259719 248.881353 92.288033 C 217.874004 116.326682 207.04538 158.285804 222.590703 194.312773 L 222.871831 194.912189 C 223.98593 197.402866 225.193738 199.831534 226.516079 202.187859 L 301.5876 352.331237 L 376.60706 202.187859 C 377.939814 199.831534 379.13721 197.402866 380.240896 194.912189 Z M 380.532436 194.312773 " transform="matrix(0.375163,0,0,0.377972,0,0.000515416)"/>
<path style="fill:none;stroke-width:6;stroke-linecap:butt;stroke-linejoin:round;stroke:rgb(0%,63.529412%,37.254902%);stroke-opacity:1;stroke-miterlimit:4;" d="M 301.535539 196.689768 C 284.896941 196.689768 268.539471 186.913086 268.539471 163.546196 C 268.539471 141.07843 284.740759 130.423294 301.598012 130.402624 C 319.371533 130.402624 334.479546 140.871735 334.479546 163.546196 C 334.510783 186.913086 319.444418 196.689768 301.535539 196.689768 Z M 301.535539 196.689768 " transform="matrix(0.375163,0,0,0.377972,0,0.000515416)"/>
</g>
</svg>
