<svg xmlns="http://www.w3.org/2000/svg" viewBox="0 0 388.75 331.88"><defs><style>.cls-1{fill:#cc0;}</style></defs><title>step03_y</title><g id="圖層_2" data-name="圖層 2"><g id="圖層_1-2" data-name="圖層 1"><path class="cls-1" d="M342.15,213.07c16.12,11.18,33.56,21.13,46,22.37l.6-6c-11.68-1.17-28.84-11.23-44.69-22.4q7.26-24.68,7.28-55c0-48.2-15.44-87.71-44.65-114.25C280.2,13.74,243.85,1,201.57,1h-.12C161.26,1,124.3,14.24,97.36,38.19c-30.52,27.12-46.64,66.5-46.64,113.88a187,187,0,0,0,6,48.25c-8.25,3.9-31,13.09-55.84,9.43L0,215.69a87.75,87.75,0,0,0,12.78.92c20.41,0,37.71-6.75,45.61-10.42,7.6,24.6,20.77,45.37,39.13,61.36a137.8,137.8,0,0,0,39.81,23.95c-9.83,6.89-39.58,27.19-58.28,33.78L68.43,311.68l-4.73,3.69,11.92,15.26a3,3,0,0,0,3.26,1c23.09-7.22,63.54-36.39,65.25-37.63v0A175.31,175.31,0,0,0,201,303.18h0A192.45,192.45,0,0,0,249,297.42c16.8,5.34,52.36,15.65,75,15.29L318.19,330l5.69,1.9L331,310.42a3,3,0,0,0-3.13-3.93c-18.09,1.72-50-6.64-68.47-12.14a133.13,133.13,0,0,0,47.28-26.83C322.93,253,334.76,234.81,342.15,213.07Zm-93,78.1-.34-.11-.07.22a185.61,185.61,0,0,1-47.7,5.89c-66.57,0-144.31-38-144.31-145.1C56.72,51.93,129.41,7.06,201.45,7h.12c40.77,0,75.72,12.18,101.09,35.24,27.93,25.38,42.69,63.35,42.69,109.81q0,28.16-6.47,51.27c-19-13.89-34.9-28.16-35.21-28.43l-4,4.46c1.27,1.15,17.78,16,37.38,30.08C330,231,318.55,248.9,302.71,263,288.09,276.12,270,285.57,249.15,291.17Z"/><circle class="cls-1" cx="155.12" cy="119.98" r="4.81"/><circle class="cls-1" cx="189.25" cy="119.49" r="4.81"/><polygon class="cls-1" points="34.39 22.09 28.54 32.25 66.53 42.85 34.39 22.09"/><polygon class="cls-1" points="57.03 51.87 34.05 48.65 34.64 59.49 57.03 51.87"/><polygon class="cls-1" points="67.5 0 55.44 6.04 76.44 34.64 67.5 0"/><path class="cls-1" d="M172.26,150c-12.27,0-22.89-12-23-12.08l-3.77,3.29c.49.56,12.19,13.79,26.76,13.79s25.35-12.63,25.8-13.17l-3.83-3.21C194.13,138.77,184.49,150,172.26,150Z"/></g></g></svg>