<svg xmlns="http://www.w3.org/2000/svg" viewBox="0 0 252.95 217.1"><defs><style>.cls-1{fill:#00a25f;}</style></defs><title>step03_sm_g</title><g id="圖層_2" data-name="圖層 2"><g id="圖層_1-2" data-name="圖層 1"><path class="cls-1" d="M223.11,140.52c10.29,7,21.28,13.15,29.24,13.95l.6-6c-7.27-.73-17.95-6.93-27.94-13.93a128.18,128.18,0,0,0,4.57-35.33c0-31.63-10.16-57.58-29.37-75C182.79,8.36,158.93,0,131.17,0h-.08C104.72,0,80.44,8.69,62.74,24.42,42.68,42.26,32.07,68.13,32.07,99.23A124.45,124.45,0,0,0,35.7,130c-5.87,2.65-19.78,7.85-34.83,5.64L0,141.63a57.92,57.92,0,0,0,8.44.61,73.75,73.75,0,0,0,28.93-6.34c8.89,27.79,28,45,49.92,54.16C80,195.14,63.09,206.4,51.9,210.57l-6.43-8.23L40.73,206l7.75,9.92a3,3,0,0,0,3.26,1c14.42-4.51,39-21.94,42.35-24.35a115.65,115.65,0,0,0,36.73,5.89h0a126.27,126.27,0,0,0,31.11-3.71c10.71,3.4,32.56,9.72,47.33,9.91L206,214.55l5.69,1.9,4.65-13.95a3,3,0,0,0-3.13-3.94c-10.63,1-28.85-3.46-41-6.94a86.61,86.61,0,0,0,28-16.56A82.7,82.7,0,0,0,223.11,140.52Zm-26.89,30.07c-16,14.34-38.65,21.92-65.39,21.92-42.79,0-92.75-24.43-92.75-93.27C38.07,34.87,84.79,6,131.09,6h.08c26.23,0,48.71,7.83,65,22.63,17.93,16.29,27.4,40.71,27.4,70.6a124.07,124.07,0,0,1-3.78,31.58c-11.72-8.69-21.37-17.34-21.56-17.52l-4,4.46c.82.74,11.22,10.07,23.75,19.15A77.24,77.24,0,0,1,196.22,170.58Z"/><circle class="cls-1" cx="100.98" cy="78.37" r="3.13"/><circle class="cls-1" cx="123.16" cy="78.06" r="3.13"/><polygon class="cls-1" points="22.51 14.75 18.7 21.35 43.4 28.24 22.51 14.75"/><polygon class="cls-1" points="37.22 34.1 22.28 32.01 22.67 39.06 37.22 34.1"/><polygon class="cls-1" points="44.03 0.39 36.19 4.31 49.84 22.9 44.03 0.39"/><path class="cls-1" d="M112.12,97.54c-7.8,0-14.6-7.65-14.66-7.72l-3,2.63c.32.37,8,9.09,17.68,9.09s16.76-8.34,17.05-8.69l-3.07-2.57C126,90.35,119.93,97.54,112.12,97.54Z"/></g></g></svg>