<svg xmlns="http://www.w3.org/2000/svg" viewBox="0 0 258.41 233.06"><defs><style>.cls-1{fill:#cc0;}</style></defs><title>step01_sm_y</title><g id="圖層_2" data-name="圖層 2"><g id="圖層_1-2" data-name="圖層 1"><path class="cls-1" d="M53.11,186.73l-3.82,3.22a27.86,27.86,0,0,0,11.87,8l1.74-4.69A23,23,0,0,1,53.11,186.73Z"/><rect class="cls-1" x="78.33" y="195.24" width="13.22" height="5"/><path class="cls-1" d="M51.22,161.64l-4.33-2.51a26.84,26.84,0,0,0-3.38,13.66v.3l5,0v-.27A21.9,21.9,0,0,1,51.22,161.64Z"/><rect class="cls-1" x="137.81" y="195.24" width="13.21" height="5"/><rect class="cls-1" x="108.08" y="195.24" width="13.21" height="5"/><path class="cls-1" d="M255.09,199.32c-2.84-2.67-6.84-4.08-11.58-4.08H241v5h2.5c3.44,0,6.26.94,8.16,2.72Z"/><rect class="cls-1" x="216.31" y="221.74" width="13.21" height="5"/><path class="cls-1" d="M253.75,215.63c-1.62,4.15-5.29,5.52-8.1,5.93l.73,4.95c5.82-.86,10.09-4.08,12-9.07Z"/><path class="cls-1" d="M224.51,200.24v-5h-6.7l30.68-61.36c.88-1.57,1.69-3.2,2.43-4.86l.16-.32a2.89,2.89,0,0,0,.18-.45,58.93,58.93,0,0,0-54.21-82c-.73,0-1.46,0-2.19.06L195.12,3a3,3,0,0,0-3-3h0c-2.42,0-59,.75-94,17.28C63.59,1,7.57,0,5.14,0h-1a3,3,0,0,0-3,3L0,142.12a3,3,0,0,0,3,3c.6,0,60.2.75,93.84,17.3a3,3,0,0,0,2.65,0c12.83-6.31,31.24-11.21,53.32-14.22l23.51,47h-8.75v5h11.25l15.58,31.16a3,3,0,0,0,5.37,0l15.58-31.16ZM7.12,6c10.49.29,57.81,2.38,88,16.46V155.06C64.16,141.68,18.24,139.54,6,139.2Zm94,149V22.51c29.32-13.66,75.71-16,88-16.44l-.25,40.73a58.93,58.93,0,0,0-46,81.44,3,3,0,0,0,.18.46l.16.32c.74,1.66,1.55,3.29,2.43,4.86l4.33,8.67C130.19,145.36,113.81,149.56,101.13,155.06ZM197,223.35l-46.11-92.22-.07-.13c-.81-1.44-1.56-2.94-2.24-4.47l-.06-.13,0-.09-.06-.14a52.92,52.92,0,1,1,97.15,0l-.06.14,0,.09-.06.13c-.68,1.53-1.43,3-2.24,4.47l-.07.13Z"/><path class="cls-1" d="M214.14,88.83c-4.33-3.94-10.22-6-17-6h0c-11.79,0-24.49,7.69-24.49,24.54s12.27,24.54,24.43,24.54c15.07,0,24.43-9.4,24.43-24.54C221.48,99.6,218.94,93.2,214.14,88.83ZM197,125.89c-8.91,0-18.43-4.87-18.43-18.54s10-18.53,18.49-18.54h0c5.28,0,9.77,1.54,13,4.46,3.56,3.24,5.37,8,5.37,14.08C215.48,124.09,202.59,125.89,197,125.89Z"/></g></g></svg>