<svg xmlns="http://www.w3.org/2000/svg" viewBox="0 0 266.85 240.51"><defs><style>.cls-1{fill:#cc0;}</style></defs><title>step02_sm_y</title><g id="圖層_2" data-name="圖層 2"><g id="圖層_1-2" data-name="圖層 1"><path class="cls-1" d="M266.85,100.38,245.55,80.69V16.5a3,3,0,0,0-3-3H205.73a3,3,0,0,0-3,3V41.13L159.08.8a3,3,0,0,0-4,0L46.56,97.66l4,4.47,18-16.06V134A66.24,66.24,0,0,0,54,132.43h0c-14.33,0-27.54,4.73-37.18,13.31C5.79,155.47,0,169.55,0,186.46c0,39.89,29,54,53.78,54.05,15.33,0,28.38-4.42,37.74-12.79a44.18,44.18,0,0,0,9.41-11.92V216H242.55a3,3,0,0,0,3-3V88.86l17.24,15.93ZM208.73,19.5h30.82V75.15L208.72,46.67Zm-155,215.4c-23.28,0-48.16-12.73-48.16-48.44,0-33.43,24.26-48.4,48.31-48.42h0c13.66,0,25.34,4.06,33.79,11.73,9.28,8.44,14.19,21.12,14.19,36.69C101.94,230.18,68.26,234.9,53.78,234.9ZM239.55,210H103.6a65.53,65.53,0,0,0,3.95-23.55c0-17.19-5.54-31.31-16-40.84a48.59,48.59,0,0,0-17-9.93v-55L157,7.05l82.54,76.27Z"/><path class="cls-1" d="M134.07,102.87v24.79A21.39,21.39,0,0,0,155.43,149h2.51a21.39,21.39,0,0,0,21.36-21.36V102.87a21.39,21.39,0,0,0-21.36-21.36h-2.51A21.39,21.39,0,0,0,134.07,102.87Zm39.23,0v24.79A15.38,15.38,0,0,1,157.94,143h-2.51a15.38,15.38,0,0,1-15.36-15.36V102.87a15.38,15.38,0,0,1,15.36-15.36h2.51A15.38,15.38,0,0,1,173.3,102.87Z"/><polygon class="cls-1" points="56.12 171.09 51.44 171.09 51.44 184.13 38.4 184.13 38.4 188.81 51.44 188.81 51.44 201.85 56.12 201.85 56.12 188.81 69.16 188.81 69.16 184.13 56.12 184.13 56.12 171.09"/></g></g></svg>