<?xml version="1.0" encoding="UTF-8"?>
<svg xmlns="http://www.w3.org/2000/svg" xmlns:xlink="http://www.w3.org/1999/xlink" width="150pt" height="129pt" viewBox="0 0 150 129" version="1.1">
<g id="surface1">
<path style="fill:none;stroke-width:6;stroke-linecap:butt;stroke-linejoin:round;stroke:rgb(0%,63.529412%,37.254902%);stroke-opacity:1;stroke-miterlimit:4;" d="M 200.997946 300.171783 C 126.650406 300.171783 53.687345 256.501458 53.687345 152.085559 C 53.717662 51.719366 126.175439 4.079927 201.432491 3.999335 C 280.84298 3.999335 348.338864 50.752272 348.338864 152.055338 C 348.359076 256.501458 281.095622 300.171783 200.997946 300.171783 Z M 200.997946 300.171783 " transform="matrix(0.38654,0,0,0.38776,0.0211433,0)"/>
<path style=" stroke:none;fill-rule:nonzero;fill:rgb(0%,63.529412%,37.254902%);fill-opacity:1;" d="M 61.839844 46.519531 C 61.839844 47.554688 61.007812 48.386719 59.980469 48.386719 C 58.957031 48.386719 58.121094 47.554688 58.121094 46.519531 C 58.121094 45.492188 58.957031 44.660156 59.980469 44.660156 C 61.007812 44.660156 61.839844 45.492188 61.839844 46.519531 Z M 61.839844 46.519531 "/>
<path style=" stroke:none;fill-rule:nonzero;fill:rgb(0%,63.529412%,37.254902%);fill-opacity:1;" d="M 75.035156 46.332031 C 75.035156 47.363281 74.199219 48.199219 73.175781 48.199219 C 72.148438 48.199219 71.316406 47.363281 71.316406 46.332031 C 71.316406 45.304688 72.148438 44.46875 73.175781 44.46875 C 74.199219 44.46875 75.035156 45.304688 75.035156 46.332031 Z M 75.035156 46.332031 "/>
<path style=" stroke:none;fill-rule:nonzero;fill:rgb(0%,63.529412%,37.254902%);fill-opacity:1;" d="M 25.738281 16.613281 L 13.316406 8.5625 L 11.054688 12.507812 Z M 25.738281 16.613281 "/>
<path style=" stroke:none;fill-rule:nonzero;fill:rgb(0%,63.529412%,37.254902%);fill-opacity:1;" d="M 22.0625 20.113281 L 13.183594 18.867188 L 13.414062 23.070312 Z M 22.0625 20.113281 "/>
<path style=" stroke:none;fill-rule:nonzero;fill:rgb(0%,63.529412%,37.254902%);fill-opacity:1;" d="M 21.453125 2.34375 L 26.113281 0 L 29.570312 13.433594 Z M 21.453125 2.34375 "/>
<path style="fill:none;stroke-width:5;stroke-linecap:butt;stroke-linejoin:round;stroke:rgb(0%,63.529412%,37.254902%);stroke-opacity:1;stroke-miterlimit:4;" d="M 147.37717 139.604006 C 147.37717 139.604006 158.655117 152.538884 172.267478 152.538884 C 185.859627 152.538884 196.147216 140.278957 196.147216 140.278957 " transform="matrix(0.38654,0,0,0.38776,0.0211433,0)"/>
<path style="fill:none;stroke-width:6;stroke-linecap:butt;stroke-linejoin:round;stroke:rgb(0%,63.529412%,37.254902%);stroke-opacity:1;stroke-miterlimit:4;" d="M 247.888334 293.92597 C 266.755652 300.020675 306.73375 311.514986 328.188124 309.48006 L 321.002981 330.947526 " transform="matrix(0.38654,0,0,0.38776,0.0211433,0)"/>
<path style="fill:none;stroke-width:6;stroke-linecap:butt;stroke-linejoin:round;stroke:rgb(0%,63.529412%,37.254902%);stroke-opacity:1;stroke-miterlimit:4;" d="M 142.364749 291.5989 C 142.364749 291.5989 100.89101 321.588879 77.991523 328.791713 L 66.076917 313.529765 " transform="matrix(0.38654,0,0,0.38776,0.0211433,0)"/>
<path style="fill:none;stroke-width:6;stroke-linecap:butt;stroke-linejoin:round;stroke:rgb(0%,63.529412%,37.254902%);stroke-opacity:1;stroke-miterlimit:4;" d="M 301.660695 177.139331 C 301.660695 177.139331 359.839136 229.604164 388.458442 232.46515 " transform="matrix(0.38654,0,0,0.38776,0.0211433,0)"/>
<path style="fill:none;stroke-width:6;stroke-linecap:butt;stroke-linejoin:round;stroke:rgb(0%,63.529412%,37.254902%);stroke-opacity:1;stroke-miterlimit:4;" d="M 61.488936 201.286452 C 61.488936 201.286452 32.879735 217.485271 0.480902 212.740468 " transform="matrix(0.38654,0,0,0.38776,0.0211433,0)"/>
</g>
</svg>
