<svg xmlns="http://www.w3.org/2000/svg" viewBox="0 0 212.6 118.1"><defs><style>.cls-1{fill:#cc0;}</style></defs><title>tlogo_y.svg</title><g id="圖層_2" data-name="圖層 2"><g id="圖層_1-2" data-name="圖層 1"><path class="cls-1" d="M89.72,77.72c-.22,5.29-.41,10.35-.66,15.41a12.19,12.19,0,0,1-.55,3.74,12.71,12.71,0,0,1-2.18,3.43,2.07,2.07,0,0,0-.41,2.44c1.23,3,2.46,6.08,3.45,9.2.78,2.45.12,3.83-1.9,5.33a1.25,1.25,0,0,1-1.89-.07,10.27,10.27,0,0,1-1.45-2c-2-3.86-4-7.75-5.95-11.62-.81-1.57-1.82-1.84-3.23-.66-1.64,1.36-3.18,2.86-4.71,4.36-2.58,2.52-5,5.19-7.69,7.6a29.75,29.75,0,0,1-4.76,3c-.7.42-1.25.09-1.72-.51a2.88,2.88,0,0,1-.2-3.81c2-2.64,4-5.18,6-7.79a8,8,0,0,0,.7-1.41,5.78,5.78,0,0,0-1.57-.63,10.92,10.92,0,0,1-4.89-1.25A2.12,2.12,0,0,1,55,100.4a72,72,0,0,1,3.67-19.86c1.1-3.25,2.47-6.41,3.8-9.58a7.07,7.07,0,0,1,3.7-3.69C71.82,64.62,77.7,62.94,84,63.17a30.84,30.84,0,0,1,3.52.46,1.67,1.67,0,0,1,1.6,1.74C89.32,69.55,89.53,73.74,89.72,77.72ZM70.37,88l.05.23c2-.45,4.11-.76,6.08-1.38a7.86,7.86,0,0,0,4.26-3.26,4.38,4.38,0,0,0,.35-1.18A4.72,4.72,0,0,0,80,82.24a8.76,8.76,0,0,0-2,.27c-2.77.8-5.53,1.62-8.27,2.49a1.89,1.89,0,0,0-1.45,2.15c.1.42,1.27.6,2,.88A.33.33,0,0,0,70.37,88ZM72,79.31h0c.28,0,.56,0,.83,0,3.23-.25,6.15-1.15,8.14-3.93A5.06,5.06,0,0,0,81.4,74c-.44-.1-.93-.37-1.32-.27-3.28.85-6.56,1.7-9.78,2.73-.53.17-.78,1.25-1.16,1.9a16.81,16.81,0,0,0,1.75.93A3,3,0,0,0,72,79.31Zm1,16.81a9.94,9.94,0,0,0,6.75-2.57,5.18,5.18,0,0,0,.71-1.16c-.45-.19-.9-.41-1.36-.57a1.72,1.72,0,0,0-.71,0c-2.79.31-5.57.6-8.35,1a2.44,2.44,0,0,0-1.28.76c-.91.95-.74,1.65.51,2S71.71,95.92,73,96.12Z"/><path class="cls-1" d="M208.28,101.74A8.25,8.25,0,0,1,203,99.57c-1.85-1.62-3.56-3.39-5.33-5.09Q191,88.05,184.34,81.64a12.72,12.72,0,0,0-1.9-1.42c-1.13-.73-1.74-.57-2.44.56-2.8,4.55-5.58,9.12-8.41,13.66-1.28,2.05-2.83,2.16-4.49.41-.22-.23-.41-.48-.63-.71a4.85,4.85,0,0,1-1.32-4.56c1.77-8.78,3.49-17.58,5.26-26.36a18.91,18.91,0,0,1,1-3,11.21,11.21,0,0,1,7.31-7c4.74-1.5,9.54-2.81,14.32-4.19a10.58,10.58,0,0,1,1.29-.15,1.14,1.14,0,0,1,1.44,1c.24,1,.63,2,.79,3.1A4.82,4.82,0,0,1,194.43,58c-2.93,1.95-5.93,3.81-8.9,5.69-1.53,1-1.62,1.46-.4,2.74,1.61,1.7,3.19,3.42,4.85,5.07,2,2,3.33,2,5.67.46,3.09-2.07,6.24-4.06,9.34-6.11a1.31,1.31,0,0,1,2.07.42c2.31,3.23,2.6,3.38.11,6.82a25.74,25.74,0,0,1-3.48,3.56c-2.1,2-2.3,3-1.21,5.66a18,18,0,0,0,3.95,5.3c1.47,1.55,3,3.07,4.33,4.72,1.83,2.23,2,4.94,1.77,7.67a1.19,1.19,0,0,1-.73.78C210.64,101.19,209.46,101.45,208.28,101.74Z"/><path class="cls-1" d="M143.36,39.3c.75,0,1.51,0,2.26,0,2.23.11,2.68.51,2.91,2.7a10.85,10.85,0,0,1,0,2.14,2.64,2.64,0,0,1-1.87,2.48q-3.8,1.35-7.53,2.87a2.2,2.2,0,0,0-1.2,1.16c-.91,3-1.74,6.07-2.54,9.12-.47,1.77,0,2.18,1.81,2.45a65.06,65.06,0,0,1,8.33,1.68c2.93.85,3.76,2.46,3.22,5.44C147.42,76.69,146,84,143.31,91c-1.09,2.77-3.47,4.25-6.24,5-1.33.35-2.72-1-2.63-2.7a34.29,34.29,0,0,1,.88-6.67c1-3.86,2.28-7.65,3.42-11.47.42-1.41,0-2-1.44-2.16-1.22-.14-2.43-.32-3.64-.46-1.49-.17-1.8.11-2.43,1.47-1.46,3.16-3,6.28-4.5,9.41a5.15,5.15,0,0,1-4.34,3.07c-1,.11-1.34-.23-1.51-1.15a13.32,13.32,0,0,1,1-7.16c2.92-8.1,5.72-16.25,8.55-24.39.43-1.24-.1-1.82-1.43-1.77-2.81.11-5.62.28-8.42.26-2.28,0-3.18-1-3.26-3.33,0-.55,0-1.11,0-1.66A4.51,4.51,0,0,1,120,42.92c2.4-1.29,5-1.53,7.67-1.88,3.29-.44,6.58-.87,9.87-1.27,1.92-.23,3.85-.38,5.78-.57Z"/><path class="cls-1" d="M96.29,34.3c-.83,3.73-1.45,7.52-2.55,11.17-1,3.16-3.4,5.28-6.27,6.85a40.75,40.75,0,0,1-12.24,4c-6.21,1.15-12.44,2.23-18.7,3-4,.52-6.25-1.72-5-6.23S54.46,44.25,56,39.85a4.25,4.25,0,0,1,3.21-2.59c2.4-.6,4.85-1.06,7.3-1.44q6.61-1,13.26-1.82c4-.49,8-.88,12-1.31.79-.08,1.57-.18,2.36-.21C96,32.41,96,32.42,96,34.24ZM65.95,47.16a2.53,2.53,0,0,0-1.34-2.58,2.13,2.13,0,0,0-2.7.91,23.54,23.54,0,0,0-2.17,3.64c-.49,1,.25,1.85.91,2.5a2,2,0,0,0,1.56.47C64,51.68,65.93,49,65.95,47.16Zm9.93-1.32a20.76,20.76,0,0,0-.67-2.23c-.3-.72-.93-.8-1.6-.5-1.92.86-3.44,5-2.55,6.85a1.06,1.06,0,0,0,1.54.61A4.88,4.88,0,0,0,75.87,45.84Zm5.55,1.23c0,1.29.91,2.43,1.66,2.47,2.11.11,4.51-2.9,3.78-4.85a15.71,15.71,0,0,0-1.55-2.57,14.54,14.54,0,0,0-2.2,2A23.6,23.6,0,0,0,81.42,47.07Z"/><path class="cls-1" d="M51.85,22.41c-2.37,0-3-.63-2.61-3,.08-.59.17-1.17.29-1.75a4.58,4.58,0,0,1,3.82-4c5.41-1.12,10.79-2.4,16.2-3.56a2.12,2.12,0,0,0,1.88-1.68c.5-2,1-4.06,1.59-6.07C73.46.83,76.28-.52,77.7.2a1.89,1.89,0,0,1,.65,1.39c.09,1.42,0,2.85.05,4.28,0,2.08.28,2.37,2.31,2.32,2.45-.06,4.91-.19,7.36-.2,1.62,0,3.24.12,4.86.2A3.35,3.35,0,0,1,96,10.52a2.85,2.85,0,0,1-2.41,3.18c-3,.79-6.06,1.47-9.1,2.19-1.61.38-3.22.81-4.85,1.1A1.8,1.8,0,0,0,78,18.8c0,.39-.07.79-.07,1.19,0,1.24.57,1.74,1.78,1.49,1.55-.32,3.07-.75,4.63-1a11.72,11.72,0,0,1,2.47.14,10.7,10.7,0,0,1-.79,3,5.79,5.79,0,0,1-2.13,1.65A34.56,34.56,0,0,1,74,28.73c-2.43.55-4.86,1.06-7.3,1.55a6.83,6.83,0,0,1-1.65.1c-1,0-1.39-.52-1.51-1.57A3.45,3.45,0,0,1,66,24.89c1.21-.48,2.44-.94,3.66-1.4s1.58-1.35,1.24-2.83c-.25-1.09-1.12-1.09-2-1-5.11.81-10.21,1.65-15.32,2.47C53,22.26,52.44,22.33,51.85,22.41Z"/><path class="cls-1" d="M21.25,101.3a18.16,18.16,0,0,1-7.63-1.4c-1.83-.82-3.27-2-3.45-4.15a5.65,5.65,0,0,1,.24-2.32c1.23-3.37,1.36-6.88,1.48-10.39a4.38,4.38,0,0,1,2.19-3.8,18.28,18.28,0,0,1,9.21-2.74,36.87,36.87,0,0,1,6.61,0c3.9.48,7,4.76,6.51,8.62-.42,3.24-.84,6.49-1.29,9.73a9.67,9.67,0,0,1-.52,1.7,4.54,4.54,0,0,1-3.52,3.33c-3.25.62-6.51,1.16-9.76,1.74Zm1.5-7.69c2.17,0,3.67-.58,4.37-2.17a13.22,13.22,0,0,0,1.07-4.52c.09-1.63-.79-2.15-2.29-1.36A49.27,49.27,0,0,0,21,88.77c-1.14.79-1.09,1.9-.54,3.56A2,2,0,0,0,22.75,93.61Z"/><path class="cls-1" d="M164,35.21c-.47-7.8,3.63-13.78,9.43-18.92a1.79,1.79,0,0,1,1.37-.45,19.64,19.64,0,0,1,4.08,1.5c.43.23.64,1.26.61,1.91a37.71,37.71,0,0,1-.58,4.7c-.33,1.82.19,2.37,2,2,4.1-.82,8.21-1.62,12.32-2.38a13.17,13.17,0,0,1,2.72-.14,2.4,2.4,0,0,1,2.6,2.61,23.67,23.67,0,0,1-.73,4.54c-.1.39-.74.76-1.22.94-4.75,1.75-9.51,3.45-14.26,5.19-3.56,1.31-7.05,2.78-10.66,3.94a16.38,16.38,0,0,1-4.81.43A2.7,2.7,0,0,1,164,38.34C163.89,37.43,164,36.52,164,35.21Z"/><path class="cls-1" d="M34.52,21.72a8.14,8.14,0,0,1,5.87,3.55c1.15,1.59.08,5.82-2.65,6.37-10.83,2.2-21.64,4.52-32.46,6.78-.46.1-.95.06-1.42.12-2.36.32-2.65.11-3.37-2.17C-.88,32.08.64,29.23,4.81,28,10,26.49,15.2,25.3,20.44,24.16c4.28-.93,8.62-1.58,12.94-2.34C33.69,21.77,34,21.77,34.52,21.72Z"/><path class="cls-1" d="M25,44.35a15.55,15.55,0,0,1,8.09,2.49,2.16,2.16,0,0,1,1,2.42c-.16,1-.89,1.21-1.69,1.35-5.22.88-10.42,1.86-15.66,2.56-2.12.28-4.42.2-5.64-2.26-.66-1.33-.57-1.8.74-2.45a36,36,0,0,1,12.1-4Z"/><path class="cls-1" d="M17.68,66.7c-1.39-.14-2.54-.16-3.65-.4-1.93-.41-2.52-2-1.37-3.6a4.54,4.54,0,0,1,1.54-1.44c4.8-2.42,9.8-3.48,15.1-1.93a18.41,18.41,0,0,1,3.37,1.44,7.93,7.93,0,0,1,2.07,1.55c.83.89.64,1.61-.56,1.87-2.65.59-5.32,1.14-8,1.54C23.28,66.18,20.36,66.41,17.68,66.7Z"/><path class="cls-1" d="M137,29.82a29.37,29.37,0,0,1-1.46,3.24,1.44,1.44,0,0,1-1.39.26,9.83,9.83,0,0,1-2.65-2.12,23.85,23.85,0,0,1-4.64-11,3.26,3.26,0,0,1,4.31-3.63,4.61,4.61,0,0,1,3.41,3.31C135.42,23.09,136.19,26.35,137,29.82Z"/><path class="cls-1" d="M9.72,9.62c0-1.8.39-2.14,2.14-1.89A4.26,4.26,0,0,1,15,9.57,28.1,28.1,0,0,1,19,17.64a4.88,4.88,0,0,1,.18,1.16c0,1.06-.44,1.48-1.37,1-3.74-1.75-6.89-4.1-7.8-8.47C9.86,10.79,9.8,10.2,9.72,9.62Z"/></g></g></svg>